<?xml version="1.0" standalone="no"?>
<!DOCTYPE svg PUBLIC "-//W3C//DTD SVG 20010904//EN"
 "http://www.w3.org/TR/2001/REC-SVG-20010904/DTD/svg10.dtd">
<svg version="1.0" xmlns="http://www.w3.org/2000/svg"
 width="1280.000000pt" height="920.000000pt" viewBox="0 0 1280.000000 920.000000"
 preserveAspectRatio="xMidYMid meet">
<metadata>
Created by potrace 1.16, written by Peter Selinger 2001-2019
</metadata>
<g transform="translate(0.000000,920.000000) scale(0.100000,-0.100000)"
fill="#000000" stroke="none">
<path d="M12650 6834 c-11 -12 -12 -18 -3 -21 8 -3 9 -13 3 -34 -5 -17 -5 -29
1 -29 5 0 9 5 9 10 0 6 10 10 23 9 12 0 16 -3 9 -6 -6 -2 -9 -9 -6 -14 3 -6 1
-15 -4 -22 -6 -7 -10 -14 -9 -17 2 -10 -38 -50 -50 -50 -7 0 -13 -7 -13 -16 0
-8 5 -12 11 -8 7 4 9 -1 7 -14 -2 -11 6 -30 17 -42 11 -12 15 -20 10 -19 -20
6 -93 -41 -98 -62 -9 -33 2 -42 29 -25 13 9 25 16 27 16 6 0 1 -35 -7 -48 -4
-6 -3 -12 3 -12 6 0 8 -7 4 -16 -4 -12 -1 -15 13 -12 10 2 18 11 18 21 -1 9 2
15 6 12 5 -3 21 6 36 20 l27 25 -24 1 c-13 0 -18 3 -11 6 6 2 12 11 12 18 0
17 27 27 33 12 3 -7 5 5 4 26 0 29 -4 37 -19 37 -35 0 -16 34 25 44 25 6 39
26 18 26 -5 0 -11 9 -14 21 -4 15 -2 19 9 15 8 -3 14 -1 14 5 0 6 6 9 14 6 10
-4 16 5 21 30 9 49 0 52 -23 6 l-20 -38 -10 25 c-8 20 -6 26 9 32 21 8 23 16
10 37 -6 8 -11 10 -15 3 -7 -11 -86 -13 -86 -2 0 3 4 10 9 16 5 5 6 17 2 27
-7 18 -8 18 -21 1z"/>
<path d="M11763 6657 c-3 -4 -11 -6 -18 -3 -7 2 -16 -1 -18 -8 -4 -10 1 -12
15 -8 17 4 20 2 15 -12 -4 -10 -7 -20 -7 -22 0 -2 -8 -4 -19 -4 -11 0 -21 -9
-24 -21 -3 -12 -10 -18 -16 -15 -12 8 -35 -30 -26 -44 3 -5 12 -7 21 -3 12 4
14 0 9 -23 -11 -50 -14 -55 -27 -49 -7 3 -3 -2 10 -11 21 -16 33 -52 12 -39
-16 10 -50 -18 -50 -41 0 -27 -21 -46 -39 -35 -8 5 -11 13 -8 18 3 5 -3 9 -13
9 -13 0 -21 -9 -25 -26 -11 -48 -43 -90 -70 -90 -16 0 -25 -6 -25 -15 0 -8 7
-15 16 -15 14 0 14 -2 0 -15 -19 -19 -53 -19 -63 0 -7 11 -16 0 -37 -45 -16
-33 -34 -60 -40 -60 -7 0 -20 -6 -30 -13 -16 -12 -17 -17 -6 -36 10 -20 9 -22
-7 -19 -10 2 -19 9 -19 16 -1 6 -2 15 -3 19 0 3 -12 -4 -26 -17 -14 -13 -23
-30 -21 -37 7 -17 -12 -27 -28 -14 -7 6 -16 8 -19 4 -12 -11 -8 -23 8 -23 23
0 20 -51 -4 -57 -12 -3 -17 -11 -14 -23 7 -27 -45 -89 -68 -83 -19 5 -27 23
-10 23 5 0 11 18 13 40 3 32 0 40 -13 40 -10 0 -19 -6 -22 -12 -7 -22 -15 -5
-18 42 -3 38 -1 45 16 48 11 2 34 19 50 36 17 18 43 39 60 47 32 15 36 32 8
38 -10 2 -21 8 -25 15 -6 8 -8 7 -8 -1 0 -7 -4 -13 -9 -13 -11 0 -32 56 -24
63 3 3 2 11 -2 17 -5 8 -12 5 -22 -9 -18 -26 -33 -27 -33 -3 0 21 -43 66 -53
55 -4 -3 -1 -16 7 -28 12 -18 12 -24 0 -40 -13 -18 -14 -18 -14 4 0 16 -4 21
-14 18 -8 -3 -16 -3 -18 1 -6 13 -66 42 -87 42 -31 0 -26 -25 13 -73 35 -43
34 -54 -6 -70 -12 -4 -18 -2 -18 8 0 7 -5 17 -12 21 -8 5 -9 2 -5 -10 4 -9 1
-26 -6 -37 -10 -16 -9 -21 2 -28 16 -11 4 -34 -14 -27 -17 6 -35 -37 -37 -92
-1 -40 -2 -41 -20 -26 -11 10 -18 12 -18 6 0 -7 -4 -12 -9 -12 -5 0 -7 9 -4
20 3 11 9 20 13 20 16 0 19 32 6 70 -7 22 -10 37 -5 34 12 -7 11 -1 -5 32 -14
25 -13 30 5 56 11 15 24 28 29 28 12 0 33 40 26 48 -4 3 -13 -4 -22 -16 -8
-11 -21 -19 -28 -16 -8 3 -28 -2 -45 -11 -28 -14 -33 -14 -47 0 -8 8 -14 23
-13 32 3 34 -1 43 -20 43 -18 0 -19 3 -10 30 6 17 18 30 27 31 12 0 13 2 4 6
-7 3 -24 -4 -36 -16 -12 -12 -25 -18 -29 -15 -3 3 -19 -3 -35 -15 -37 -26 -49
-26 -57 -1 -8 25 -21 26 -34 2 -6 -12 -5 -23 5 -37 15 -21 19 -39 6 -31 -5 3
-19 -4 -31 -15 -12 -12 -25 -18 -29 -14 -4 4 3 15 16 25 27 22 28 31 2 53 -23
19 -46 22 -55 7 -3 -5 -1 -10 6 -10 8 0 8 -4 -1 -15 -7 -8 -21 -15 -31 -15
-12 0 -19 -7 -19 -20 0 -11 -7 -20 -16 -20 -11 0 -14 -6 -9 -20 6 -19 -22 -80
-37 -80 -4 0 -6 -12 -5 -26 2 -32 -11 -39 -38 -18 -17 12 -18 17 -7 35 10 16
10 19 1 13 -9 -5 -10 -2 -6 9 10 26 -11 20 -29 -9 -13 -18 -19 -22 -25 -12 -6
9 -12 8 -28 -6 -15 -13 -29 -17 -51 -13 -17 4 -30 2 -30 -3 0 -6 5 -10 11 -10
8 0 8 -4 0 -14 -9 -11 -9 -15 0 -18 17 -6 2 -28 -18 -28 -9 0 -13 6 -9 15 3 8
0 15 -6 15 -7 0 -7 4 1 14 6 7 9 21 5 30 -7 17 -44 23 -44 6 0 -5 -11 -10 -25
-10 -14 0 -34 -6 -46 -12 -17 -11 -22 -10 -33 5 -7 9 -20 17 -29 17 -8 0 -17
6 -20 14 -7 17 -36 12 -85 -12 -33 -17 -35 -22 -47 -80 -4 -18 -11 -30 -16
-26 -5 3 -9 -1 -9 -9 0 -8 -7 -17 -15 -21 -10 -4 -14 -19 -14 -54 1 -27 -3
-57 -7 -68 -11 -22 -10 -41 0 -66 7 -16 10 -16 29 -3 12 8 33 15 48 15 15 0
29 7 33 16 8 21 8 21 -14 27 -13 3 -24 -1 -30 -13 -6 -12 -17 -16 -30 -13 -26
7 -26 23 1 23 11 0 17 4 14 10 -3 5 5 12 19 16 17 4 26 14 28 32 4 34 21 38
38 8 16 -30 29 -26 23 8 -5 26 27 56 61 56 19 0 19 -1 -2 -23 -12 -13 -22 -30
-22 -39 0 -20 36 -52 50 -43 6 4 17 1 25 -5 11 -9 21 -8 46 4 17 9 35 13 40
10 5 -3 9 0 9 5 0 20 32 11 37 -9 6 -23 23 -24 73 -5 l35 13 -31 1 c-35 1 -81
38 -66 53 12 12 5 38 -9 38 -5 0 -9 -8 -9 -18 0 -27 -10 -33 -27 -16 -9 8 -14
16 -12 17 2 2 20 13 39 26 19 13 43 40 53 60 9 21 28 44 42 51 22 12 28 12 42
-3 15 -15 15 -18 -1 -42 -10 -15 -16 -28 -14 -30 2 -1 13 -8 26 -14 29 -15 28
-49 -3 -95 l-26 -38 31 7 c34 7 39 -1 13 -21 -17 -12 -16 -13 5 -14 15 0 26 9
34 28 10 23 80 102 91 102 1 0 2 -17 0 -37 -2 -21 0 -32 3 -25 8 17 34 15 34
-3 0 -8 -4 -15 -10 -15 -5 0 -12 -11 -16 -25 -6 -24 -22 -29 -36 -10 -4 6 -5
17 -2 27 2 9 0 19 -6 23 -5 3 -11 -1 -11 -9 -3 -35 -5 -41 -15 -39 -5 1 -10
-7 -11 -17 -1 -16 2 -17 20 -11 12 5 31 5 42 0 31 -12 35 -11 45 16 7 17 17
25 34 25 35 0 40 15 14 39 -12 12 -17 21 -10 21 6 0 14 -5 17 -11 4 -6 13 -8
21 -5 8 3 11 0 7 -10 -3 -7 0 -14 6 -14 6 0 11 8 11 18 0 10 9 25 20 35 25 21
34 22 26 2 -12 -32 21 -13 38 22 11 23 20 32 25 25 5 -9 14 -9 39 0 32 12 57
4 33 -11 -27 -17 -7 -31 23 -16 39 20 46 19 46 -8 0 -16 -9 -28 -25 -35 -14
-6 -25 -18 -25 -27 0 -9 -9 -15 -25 -15 -14 0 -25 -5 -25 -10 0 -6 12 -8 28
-5 26 6 26 6 8 -9 -19 -15 -18 -16 15 -12 18 2 38 4 42 5 5 0 6 5 3 10 -9 14
15 28 62 35 l43 6 -16 -30 c-9 -18 -23 -30 -33 -29 -33 3 -42 -1 -42 -21 0
-10 7 -23 16 -28 13 -7 14 -13 5 -30 -6 -11 -11 -31 -10 -44 1 -19 3 -18 16
12 14 32 16 33 28 16 12 -15 12 -22 -1 -40 -8 -13 -11 -26 -7 -30 4 -4 0 -4
-10 0 -11 4 -17 1 -17 -7 0 -9 -4 -8 -11 4 -10 17 -12 17 -30 -4 -30 -35 -24
-61 10 -40 9 6 20 2 34 -12 14 -14 22 -17 25 -9 2 7 10 12 18 12 8 0 14 3 15
8 10 128 9 144 -3 137 -7 -3 -5 0 5 8 9 8 17 25 17 39 0 31 9 41 26 27 9 -8
10 -18 3 -36 -9 -23 -7 -25 13 -20 13 2 32 8 43 11 18 7 18 6 -1 -6 -12 -7
-19 -18 -17 -24 2 -7 -11 -28 -30 -48 -21 -21 -37 -51 -41 -74 -11 -58 -12
-61 -19 -68 -4 -4 -7 3 -7 16 0 18 -3 20 -13 11 -8 -6 -17 -8 -20 -4 -4 3 -9
-2 -13 -11 -3 -9 -10 -14 -14 -11 -4 3 -13 -2 -19 -9 -7 -8 -8 -16 -4 -19 18
-11 73 -18 73 -10 0 5 16 9 35 9 26 0 34 -4 30 -14 -3 -8 0 -12 7 -9 7 2 12
10 11 16 -2 6 3 11 11 11 8 0 23 3 33 6 13 4 14 3 5 -4 -11 -7 -10 -11 4 -16
23 -9 6 -26 -38 -36 l-33 -8 31 -1 c16 -1 36 -7 43 -13 11 -11 13 -10 8 5 -4
11 -1 17 8 17 16 0 20 12 8 24 -11 10 -12 36 -2 36 5 0 9 -4 9 -10 0 -5 10
-11 23 -11 16 -1 18 -2 5 -6 -36 -9 -16 -18 39 -18 33 0 64 5 71 13 22 20 40
15 35 -12 -4 -20 0 -24 26 -28 28 -4 31 -2 25 16 -4 12 -12 25 -18 29 -12 10
16 4 49 -9 19 -7 19 -7 2 13 -14 16 -16 26 -8 47 13 32 23 33 52 1 13 -13 27
-25 32 -25 12 0 8 28 -5 34 -9 3 -8 5 2 4 22 -3 60 24 60 43 0 9 7 22 15 29
13 11 15 8 15 -18 0 -17 6 -33 13 -35 7 -3 5 -6 -5 -6 -10 -1 -18 -7 -18 -15
0 -8 -15 -26 -32 -40 -26 -20 -30 -28 -20 -38 9 -9 12 -9 12 1 0 7 5 9 10 6 6
-3 10 -1 10 4 0 6 11 11 25 11 19 0 23 -4 19 -17 -5 -17 -5 -17 9 -1 10 13 17
14 25 6 16 -16 3 -38 -23 -38 -13 0 -27 -4 -30 -10 -3 -5 -15 -10 -25 -10 -25
0 -78 -31 -85 -50 -21 -57 -23 -70 -10 -70 7 0 16 7 19 16 4 11 13 14 31 10
18 -5 25 -2 25 9 0 8 5 15 10 15 13 0 13 -17 0 -25 -6 -4 -8 -11 -4 -16 3 -5
0 -8 -6 -7 -12 3 -63 -82 -54 -91 3 -3 17 8 30 24 23 28 24 29 24 8 0 -13 5
-23 11 -23 7 0 8 11 4 30 -8 36 12 42 21 6 8 -33 31 -40 38 -13 9 33 7 44 -4
27 -9 -13 -11 -13 -20 0 -5 8 -10 17 -9 20 1 13 64 54 82 53 11 -1 33 9 49 22
34 29 53 32 62 10 3 -8 9 -15 14 -15 14 0 1 54 -17 67 -14 11 -13 13 7 19 20
6 29 37 23 77 -3 17 28 5 54 -23 16 -16 38 -30 50 -30 18 0 21 -5 17 -30 -2
-17 -13 -35 -23 -41 -23 -12 -25 -49 -4 -49 9 0 15 -9 15 -25 0 -14 -5 -25
-12 -25 -6 0 -8 -3 -5 -7 4 -3 17 3 30 14 16 15 28 18 42 13 29 -12 35 -12 35
5 0 8 -4 15 -9 15 -20 0 -41 33 -41 66 0 36 13 46 24 18 6 -15 8 -15 25 0 11
10 22 28 25 42 4 13 13 24 21 24 8 0 15 3 15 8 0 11 -40 33 -50 27 -4 -3 -21
-7 -37 -9 -15 -3 -38 -8 -49 -11 -16 -5 -23 -2 -26 12 -8 31 13 49 64 56 38 5
52 2 80 -17 18 -12 32 -30 32 -39 -1 -12 6 -17 23 -17 22 0 24 -2 13 -15 -7
-8 -18 -15 -25 -15 -19 0 -40 -30 -37 -52 2 -12 -3 -18 -15 -18 -16 0 -15 -2
3 -13 12 -6 31 -18 42 -24 17 -11 23 -8 46 25 14 21 26 44 26 51 0 7 4 10 9 6
5 -3 12 -1 16 5 3 5 -1 10 -9 10 -9 0 -16 7 -16 15 0 18 28 34 51 28 14 -4 16
-9 9 -23 -8 -16 -7 -17 15 -12 14 4 25 10 25 15 0 4 0 11 0 16 0 5 -9 12 -19
16 -14 4 -19 15 -18 40 1 19 5 35 9 35 5 0 16 16 25 35 10 20 24 35 34 35 10
0 21 5 24 10 4 6 11 7 17 4 6 -4 5 -10 -3 -15 -11 -7 -9 -9 7 -9 11 0 30 11
42 25 12 14 31 25 42 25 13 0 20 7 20 20 0 13 7 20 19 20 11 0 29 14 41 30 13
19 30 30 45 30 13 0 27 5 30 10 4 6 25 20 48 32 23 12 36 23 30 25 -20 7 -16
17 21 57 23 26 32 44 29 60 -4 18 1 25 20 30 20 5 24 10 19 28 -5 20 -4 21 11
9 9 -7 14 -18 10 -23 -3 -6 0 -8 8 -6 8 3 14 14 13 26 0 15 7 22 28 26 36 7
44 27 24 66 -10 21 -11 30 -3 27 6 -2 16 -20 20 -40 10 -39 26 -47 48 -21 10
12 10 20 2 34 -10 14 -8 21 10 38 12 11 28 17 36 14 11 -4 13 4 8 42 -4 25 -3
46 1 46 4 0 8 -12 9 -26 1 -26 20 -47 35 -38 8 5 8 154 -1 154 -15 -1 -42 -30
-37 -39 4 -5 2 -12 -3 -15 -5 -3 -11 1 -15 9 -7 20 -36 8 -36 -16 0 -10 -4
-19 -10 -19 -5 0 -7 -6 -4 -14 3 -7 -7 -21 -23 -31 -24 -16 -26 -16 -14 -2 11
15 11 17 -1 17 -19 0 -48 -32 -48 -53 0 -9 -4 -17 -10 -17 -5 0 -10 5 -10 10
0 6 -7 10 -15 10 -9 0 -19 -17 -26 -46 -8 -31 -16 -44 -25 -40 -8 3 -21 3 -29
0 -14 -6 -14 -8 1 -18 21 -16 15 -70 -8 -74 -15 -3 -18 4 -18 32 0 42 -15 47
-32 11 -8 -18 -8 -35 2 -70 11 -38 11 -53 0 -86 -13 -37 -16 -40 -41 -35 -22
4 -29 1 -34 -14 -10 -30 -32 -24 -43 13 -11 37 -11 77 0 77 4 0 7 15 7 33 0
17 2 44 4 59 2 15 1 25 -4 23 -4 -3 -10 13 -14 35 -7 42 -13 48 -33 28 -9 -9
-12 -9 -12 1 0 7 -4 10 -9 6 -6 -3 -4 -17 5 -33 7 -15 14 -36 14 -48 0 -24
-34 -59 -48 -50 -5 3 -12 -4 -15 -15 -4 -15 1 -27 15 -39 l22 -17 -22 -34
c-51 -81 -85 -160 -74 -171 7 -7 12 -20 12 -30 0 -15 -3 -17 -19 -8 -16 8 -22
6 -29 -7 -9 -15 -13 -14 -40 8 -17 13 -32 35 -34 49 -4 32 -22 29 -26 -5 -2
-17 1 -25 12 -25 23 0 20 -31 -4 -37 -24 -6 -26 -20 -4 -25 13 -2 12 -7 -6
-25 -11 -13 -27 -23 -35 -23 -18 0 -20 31 -3 48 9 9 9 12 -1 12 -9 0 -7 8 5
29 13 22 15 33 6 43 -7 9 -8 19 -2 28 17 26 11 31 -17 13 -19 -13 -28 -14 -31
-5 -2 6 -9 12 -17 12 -7 0 -18 14 -25 30 -14 35 -45 40 -53 9 -7 -24 -26 -21
-41 7 -6 10 -12 21 -13 23 -1 2 -11 -7 -22 -20 -18 -22 -20 -22 -26 -6 -4 9
-13 17 -21 17 -15 0 -15 -1 -21 -40 -1 -14 -4 -35 -6 -47 -4 -30 -16 -41 -27
-24 -12 20 -3 103 12 113 8 5 1 6 -17 2 -28 -7 -29 -6 -16 10 13 15 13 19 1
26 -12 7 -11 10 5 16 28 11 35 24 23 48 -6 12 -14 27 -18 35 -3 8 -12 17 -20
19 -10 4 -12 -6 -8 -41 4 -33 2 -47 -8 -51 -8 -3 -13 -11 -12 -18 2 -8 -9 -14
-27 -16 l-30 -4 29 31 c20 20 26 35 22 48 -5 12 -9 14 -14 6 -4 -7 -18 -10
-30 -6 -21 5 -21 6 -5 19 16 12 15 13 -13 8 -25 -5 -32 -2 -41 18 -9 19 -5 30
19 66 29 42 29 44 11 58 -17 14 -17 15 5 30 12 9 22 24 23 33 0 10 2 11 6 4 7
-18 23 -16 23 2 0 9 20 38 45 64 35 38 50 47 69 44 22 -5 23 -8 15 -36 -11
-40 -11 -47 1 -47 16 0 69 63 70 83 0 18 29 56 31 40 1 -4 4 3 8 17 4 14 12
24 18 23 6 -1 19 7 29 19 19 21 19 21 -1 14 -33 -12 -36 -12 -48 6 -9 13 -9
23 -1 36 10 16 8 18 -22 19 -19 1 -32 -3 -29 -7 5 -8 -11 -24 -35 -32 -12 -5
-16 6 -17 60 -2 36 -7 68 -12 71 -5 3 -1 17 10 30 10 13 19 18 19 12 0 -26 29
4 35 37 4 23 9 31 15 23 5 -9 10 -10 14 -2 4 6 12 11 17 11 6 0 8 -4 5 -8 -3
-5 1 -9 9 -9 18 0 19 13 3 24 -17 11 -58 11 -65 0z m-1138 -567 c-5 -24 -3
-30 10 -30 14 0 15 -3 5 -15 -7 -8 -19 -14 -28 -13 -9 2 -20 -12 -30 -39 -11
-28 -22 -43 -33 -43 -10 0 -24 -6 -31 -13 -20 -21 -48 -17 -49 7 -1 12 -5 3
-10 -19 -15 -66 -18 -72 -29 -55 -8 12 -13 13 -30 2 -11 -7 -20 -9 -20 -4 0
14 24 32 43 32 17 0 19 6 15 50 l-5 50 44 26 c29 17 53 24 68 20 15 -4 31 1
46 15 18 15 19 19 7 15 -22 -7 -22 -5 -2 42 13 32 16 35 25 19 6 -10 7 -31 4
-47z m770 -218 c2 -3 17 9 32 27 15 17 35 31 45 31 10 0 18 4 18 10 0 5 6 7
14 4 23 -9 30 -83 10 -105 -10 -11 -24 -19 -31 -19 -12 0 -13 -9 -8 -40 4 -26
3 -40 -4 -40 -6 0 -11 8 -11 18 0 10 -11 29 -25 42 -14 13 -25 30 -25 38 0 9
-6 12 -16 8 -8 -3 -12 -2 -9 4 3 5 2 17 -3 26 -8 14 -10 14 -25 0 -9 -9 -18
-12 -22 -7 -3 6 -13 7 -23 4 -9 -3 1 12 23 34 l40 39 8 -35 c4 -19 9 -37 12
-39z"/>
<path d="M12278 6439 c-10 -6 -16 -21 -16 -39 1 -16 -6 -40 -15 -54 -9 -14
-14 -31 -11 -39 3 -8 -3 -20 -12 -28 -16 -13 -17 -12 -10 5 7 19 6 19 -13 2
-11 -10 -18 -22 -16 -27 5 -7 -11 -22 -25 -25 -27 -5 -39 -18 -30 -29 8 -9 6
-14 -4 -18 -9 -4 -18 -2 -21 3 -3 5 -19 4 -36 -2 -25 -8 -33 -8 -40 3 -7 11
-9 9 -9 -6 0 -12 5 -26 12 -33 9 -9 8 -12 -5 -12 -16 0 -22 -12 -18 -34 1 -4
-4 -14 -10 -22 -12 -14 -7 -18 23 -15 12 2 16 -3 12 -13 -8 -21 11 -20 33 2
10 10 30 24 46 31 15 8 27 20 27 28 0 7 4 13 9 13 5 0 12 7 15 16 5 13 1 15
-21 10 -25 -6 -26 -5 -10 7 9 8 17 20 17 28 0 12 2 12 9 0 7 -11 13 -9 30 8
11 11 21 23 21 26 0 3 0 11 0 19 0 8 11 17 25 20 14 4 25 10 25 15 0 5 11 19
25 32 13 13 25 31 25 40 0 9 11 27 24 41 14 13 26 30 28 37 4 16 -60 24 -84
10z"/>
<path d="M11872 6135 c-11 -14 -23 -45 -26 -70 -4 -24 -10 -44 -14 -43 -4 2
-20 -10 -36 -25 -39 -36 -45 -26 -11 18 38 51 25 55 -17 5 -19 -22 -37 -40
-40 -40 -3 0 -8 10 -12 23 -6 22 -6 21 -25 -7 -23 -34 -19 -48 12 -44 18 2 22
-2 19 -20 -1 -15 2 -22 10 -19 7 2 13 14 12 26 0 11 5 21 11 21 20 0 25 -12
13 -28 -10 -12 -9 -14 6 -11 11 2 21 14 23 28 6 44 15 37 10 -9 -3 -35 -9 -48
-28 -57 -20 -10 -21 -13 -6 -19 10 -3 30 -1 46 6 29 12 33 20 48 110 6 39 32
82 75 123 l29 27 -23 9 c-13 5 -26 7 -30 4 -5 -2 -8 1 -8 6 0 19 -18 12 -38
-14z"/>
<path d="M12055 5978 c-9 -16 -12 -28 -6 -28 6 0 11 -9 11 -20 0 -21 -42 -46
-48 -29 -2 5 -10 9 -18 9 -17 0 -17 -26 0 -65 l14 -30 7 33 c9 38 9 38 37 12
l21 -19 29 43 c16 24 35 47 43 50 8 3 15 12 15 20 0 10 6 13 15 10 8 -4 15 -1
15 5 0 6 -9 11 -20 11 -11 0 -20 4 -20 9 0 5 -18 11 -39 13 -34 3 -42 0 -56
-24z"/>
<path d="M9410 5776 c0 -17 8 -25 32 -32 22 -7 32 -16 33 -32 2 -30 14 -40 25
-22 6 8 10 13 11 10 0 -3 2 -13 4 -23 2 -10 -3 -21 -11 -24 -8 -3 -14 -9 -14
-14 0 -4 6 -6 14 -3 20 8 30 -28 11 -38 -18 -11 -20 -35 -2 -41 6 -2 0 -8 -16
-12 -15 -4 -32 -16 -38 -26 -5 -11 -16 -19 -24 -19 -8 0 -15 -8 -15 -17 0 -17
-47 -70 -54 -62 -12 12 -9 44 4 45 8 1 21 2 28 3 10 1 10 5 -2 17 -9 8 -16 19
-16 24 0 19 26 65 38 66 30 2 34 5 28 20 -3 8 -1 24 4 35 8 14 6 27 -5 49 -18
34 -30 40 -20 10 5 -15 0 -21 -19 -26 -13 -3 -34 0 -46 6 -12 6 -28 9 -35 6
-29 -11 -25 14 4 29 33 17 33 46 0 38 -22 -6 -36 -23 -19 -23 6 0 1 -14 -12
-30 -17 -23 -19 -33 -10 -42 16 -16 15 -28 -2 -28 -24 0 -53 -52 -49 -87 2
-28 -1 -33 -18 -33 -11 0 -29 5 -40 10 -13 8 -19 7 -19 0 0 -6 -11 -15 -24
-20 -13 -5 -27 -19 -31 -32 -12 -38 -35 -59 -55 -48 -10 5 -20 6 -24 3 -28
-28 41 -31 72 -3 12 11 33 20 47 20 20 0 25 5 25 26 0 23 2 25 15 14 13 -11
20 -11 40 0 14 7 25 19 25 27 0 16 47 40 57 29 4 -4 2 -16 -5 -26 -16 -26 -15
-33 2 -27 48 19 30 -77 -19 -103 -16 -8 -35 -21 -43 -28 -16 -15 -32 -7 -32
16 0 13 -5 12 -20 -8 -11 -14 -20 -21 -20 -16 0 5 -8 1 -19 -8 -17 -15 -20
-15 -34 -2 -8 8 -18 12 -21 8 -4 -3 -11 0 -16 8 -8 12 -10 12 -16 -3 -4 -11
-17 -17 -35 -17 -16 0 -28 -3 -27 -7 4 -14 -23 -53 -36 -53 -15 0 -26 -21 -26
-50 0 -19 39 -73 40 -55 0 6 10 21 21 35 14 16 19 19 15 8 -4 -12 0 -18 11
-18 9 0 13 -3 10 -6 -4 -4 3 -15 15 -25 11 -11 17 -19 12 -19 -11 0 17 -20 29
-20 4 0 7 7 7 15 0 8 4 15 10 15 5 0 12 11 16 25 3 14 10 22 15 19 12 -7 12
-44 -1 -44 -5 0 -20 -11 -34 -25 -34 -34 -14 -32 30 3 22 17 34 36 34 52 1 22
2 23 11 7 8 -14 14 -16 25 -6 10 8 14 8 14 1 0 -16 27 -3 35 15 3 9 0 20 -7
25 -10 6 -9 8 4 8 10 0 22 9 28 20 6 11 19 20 30 20 10 0 22 5 25 10 3 6 14
10 24 10 14 0 16 -7 13 -37 -2 -29 -1 -34 7 -23 15 22 13 52 -5 78 -13 18 -19
21 -30 11 -10 -9 -14 -9 -14 0 0 6 8 15 17 18 22 9 56 43 49 50 -11 11 29 32
61 33 25 0 31 -4 27 -15 -4 -8 -10 -12 -15 -9 -6 3 -7 -5 -3 -20 6 -25 -10
-39 -18 -16 -2 6 -15 -3 -30 -20 -14 -16 -23 -30 -19 -30 15 0 -11 -192 -28
-198 -6 -2 -11 -10 -11 -18 0 -14 -19 -14 -51 0 -38 17 -68 -8 -62 -51 4 -28
-16 -77 -39 -93 -4 -3 -5 -15 -2 -26 4 -16 11 -20 31 -16 19 4 24 1 21 -9 -3
-8 -11 -13 -17 -11 -6 1 -14 -6 -18 -15 -4 -10 -11 -21 -16 -24 -5 -4 -6 -12
-2 -19 6 -9 9 -9 16 1 7 11 9 11 9 1 0 -20 70 -6 94 19 15 15 17 23 9 26 -16
6 -17 33 -1 33 6 0 20 8 31 18 18 16 19 16 17 -3 -5 -41 1 -49 14 -20 8 18 9
33 4 36 -5 3 4 9 21 12 20 4 31 13 31 23 0 14 2 14 16 3 12 -10 15 -24 11 -53
-4 -24 0 -54 9 -75 8 -19 12 -41 9 -49 -4 -12 -3 -13 10 -2 20 17 20 -5 0 -40
l-14 -25 -1 24 0 24 -20 -23 c-21 -24 -25 -47 -12 -67 11 -17 26 -4 53 47 33
63 50 113 40 120 -13 8 -23 93 -12 99 6 4 7 12 0 21 -8 13 -10 13 -19 0 -9
-13 -10 -13 -11 0 -1 8 -1 21 0 29 2 8 -2 10 -10 6 -9 -6 -10 2 -4 31 7 42 22
67 35 59 4 -3 10 2 13 9 3 8 1 17 -6 20 -9 3 -9 5 1 5 6 1 12 12 12 26 0 22 4
25 34 22 19 -1 32 -6 28 -11 -5 -10 -12 -52 -15 -97 -1 -14 -8 -33 -16 -42 -7
-9 -11 -28 -9 -42 3 -15 1 -22 -5 -18 -7 4 -8 0 -2 -13 9 -21 10 -41 4 -64 -2
-8 2 -14 9 -12 10 2 10 -2 2 -18 -6 -12 -9 -26 -7 -33 3 -8 7 -6 12 5 7 17 70
88 78 88 9 0 -11 -70 -23 -85 -7 -8 -18 -15 -25 -15 -21 0 -47 -37 -49 -70 -2
-27 0 -29 9 -16 16 22 24 20 18 -4 -3 -12 0 -20 7 -20 25 0 42 -30 36 -63 -4
-26 -4 -28 5 -14 22 38 27 73 13 92 -8 10 -14 13 -14 7 0 -22 -18 -12 -22 13
-4 19 -1 25 13 25 12 0 19 9 21 26 2 18 15 35 41 51 20 13 37 19 37 14 0 -5
-8 -12 -18 -15 -21 -7 -52 -57 -51 -83 0 -11 5 -6 12 14 18 47 31 57 55 42 18
-11 23 -10 40 11 22 27 19 48 -4 29 -9 -7 -14 -8 -14 -1 0 6 8 13 19 17 10 3
28 14 40 24 l21 19 -45 6 c-25 4 -45 12 -45 17 0 5 17 7 41 3 38 -6 40 -6 34
17 -8 34 9 105 25 101 13 -3 50 26 50 40 0 13 -20 9 -37 -8 -13 -12 -18 -13
-24 -3 -4 8 -5 16 -1 19 4 3 12 24 18 48 9 34 9 42 -2 42 -20 0 -17 23 7 54
19 24 20 31 9 54 -8 15 -12 34 -11 42 2 8 0 12 -4 8 -7 -7 -13 -32 -14 -60 -1
-10 -12 -20 -26 -24 -13 -3 -27 -14 -30 -23 -3 -10 -19 -27 -35 -39 -28 -21
-30 -27 -31 -90 0 -37 -3 -60 -6 -52 -3 8 -11 22 -18 30 -29 35 -25 75 11 126
25 34 33 56 29 71 -6 24 10 33 18 11 7 -23 34 9 58 70 21 53 51 103 35 58 -6
-17 -5 -17 10 -5 15 13 17 11 12 -19 -5 -36 2 -40 28 -14 17 16 18 16 11 -1
-13 -35 5 -39 25 -6 21 34 11 63 -14 41 -9 -7 -19 -7 -28 -2 -12 8 -12 10 4
10 25 0 48 31 34 47 -7 9 -5 25 6 53 18 46 21 80 6 80 -5 0 -10 -9 -10 -20 0
-11 -7 -20 -15 -20 -20 0 -19 20 1 34 10 7 13 18 8 30 -6 17 -9 17 -19 3 -13
-18 -39 -26 -44 -12 -2 5 9 17 25 25 37 21 40 34 9 48 -37 17 -47 15 -40 -8 6
-20 -9 -28 -20 -10 -10 16 -45 -8 -45 -30 0 -11 -7 -20 -15 -20 -19 0 -20 26
-1 33 14 6 16 38 3 37 -4 0 -15 0 -25 0 -11 0 -24 -11 -30 -25 -10 -22 -14
-24 -37 -13 -21 10 -28 9 -35 -2 -5 -8 -7 -17 -5 -20 2 -3 -6 -7 -17 -7 -29
-3 -33 -9 -35 -66 -1 -29 -5 -69 -9 -89 -5 -34 -9 -37 -30 -32 -15 4 -24 2
-24 -5 0 -6 7 -11 16 -11 14 0 14 -2 0 -15 -12 -12 -13 -21 -4 -40 6 -14 16
-21 24 -18 8 3 14 1 14 -3 0 -5 11 -10 24 -10 17 -1 23 2 19 12 -3 8 -9 14
-14 14 -5 0 -9 4 -9 10 0 5 7 7 16 3 10 -4 22 1 30 12 18 25 29 13 13 -13 -11
-18 -10 -24 3 -39 12 -13 16 -32 13 -66 -3 -43 -2 -46 15 -37 16 9 17 7 7 -13
-8 -18 -17 -22 -45 -19 -25 3 -37 0 -44 -12 -5 -9 -16 -16 -23 -16 -18 0 -20
16 -2 23 10 4 10 6 0 6 -7 1 -13 6 -13 12 0 6 5 9 12 7 16 -6 44 24 52 56 7
29 -9 35 -45 16 -13 -7 -19 -7 -20 0 -1 5 -2 16 -3 23 0 6 -13 13 -27 15 -21
2 -25 7 -22 25 3 15 -5 32 -21 50 -28 30 -37 58 -12 38 10 -9 20 1 47 51 41
77 47 118 19 125 -24 6 -25 13 -6 38 8 11 11 26 8 34 -3 9 -1 12 6 7 7 -4 12
-2 12 4 0 16 -30 24 -42 12 -15 -15 -40 8 -27 25 13 14 -26 43 -58 43 -17 0
-23 -6 -23 -24z"/>
<path d="M12720 5701 c0 -22 -33 -42 -58 -36 -23 6 -24 4 -19 -24 6 -27 4 -31
-16 -31 -30 0 -47 -18 -47 -50 0 -15 -3 -30 -7 -34 -4 -4 -8 -15 -8 -24 0 -9
-15 -23 -32 -31 -21 -9 -33 -22 -33 -34 0 -18 2 -19 18 -5 9 8 29 19 44 25 22
10 27 9 34 -5 9 -22 5 -66 -7 -70 -6 -2 -4 -10 2 -19 10 -11 10 -16 0 -23 -8
-4 -11 -16 -6 -29 3 -12 2 -21 -3 -21 -6 0 -12 5 -14 12 -7 20 -58 0 -58 -22
0 -11 -5 -20 -11 -20 -5 0 -7 -4 -4 -10 7 -11 79 15 114 42 25 19 67 25 56 8
-3 -5 -2 -10 4 -10 5 0 13 10 17 23 3 12 13 30 21 39 10 11 14 30 11 53 -4 36
14 50 26 20 3 -8 12 -12 21 -9 12 5 14 1 11 -17 -3 -13 -5 -27 -5 -31 -1 -5
-6 -8 -12 -8 -5 0 -7 5 -4 10 10 16 -5 12 -23 -6 -9 -9 -17 -28 -18 -43 -3
-48 -4 -50 -19 -45 -10 4 -15 0 -15 -11 0 -9 4 -14 9 -10 5 3 11 -7 13 -22 2
-17 9 -28 18 -28 16 0 19 -67 5 -117 -9 -34 13 -39 33 -7 8 12 19 18 28 15 12
-5 14 20 12 177 l-3 182 -50 0 c-47 0 -50 2 -60 31 -7 20 -15 29 -25 26 -8 -3
-12 -1 -8 3 4 5 3 14 -3 21 -7 8 -8 25 -4 41 4 16 10 22 12 16 3 -7 14 -13 26
-13 12 0 18 4 12 8 -20 14 -14 32 20 58 36 27 47 64 20 64 -8 0 -15 -4 -15 -9z"/>
<path d="M9140 5664 c0 -5 -18 -10 -41 -10 -22 -1 -45 -6 -51 -12 -9 -9 -15
-9 -25 0 -10 8 -18 4 -35 -17 -18 -24 -22 -25 -30 -11 -10 18 -52 20 -168 8
l-55 -5 30 -14 c25 -12 26 -13 5 -9 -14 3 -31 6 -37 6 -7 0 -13 9 -13 19 0 16
8 21 43 24 l42 4 -43 1 c-27 1 -44 -3 -48 -11 -3 -9 -26 -13 -79 -13 -45 1
-75 -3 -75 -9 0 -6 -17 -9 -41 -7 -27 3 -39 1 -35 -6 4 -6 -7 -7 -32 -1 -50
11 -75 11 -67 -1 4 -6 -17 -10 -57 -9 -66 1 -66 1 11 25 11 4 11 8 3 16 -9 9
-17 7 -32 -7 -16 -15 -31 -17 -87 -13 -38 3 -60 4 -51 1 10 -3 15 -10 11 -19
-4 -12 -21 -15 -72 -13 -36 1 -90 -3 -120 -10 -65 -13 -138 -14 -145 -2 -4 5
0 12 6 14 7 3 3 6 -9 6 -25 1 -29 -9 -11 -27 9 -9 6 -12 -15 -12 -29 0 -34 9
-15 28 9 9 4 11 -19 9 -17 -1 -29 -5 -26 -9 2 -5 -12 -8 -31 -8 -42 0 -49 -19
-8 -21 23 -2 23 -2 5 -6 -12 -2 -30 0 -39 5 -9 5 -35 5 -62 0 -29 -5 -50 -4
-56 2 -14 14 -44 12 -91 -4 l-40 -15 65 -3 c53 -3 45 -5 -40 -7 -58 -2 -142
-4 -187 -5 -51 0 -87 -6 -94 -13 -15 -15 -59 -17 -59 -4 0 5 10 12 23 14 12 2
-5 5 -37 6 -58 1 -71 -5 -26 -14 49 -9 28 -14 -60 -12 -50 0 -93 4 -96 9 -3 4
23 5 58 2 35 -4 59 -3 55 2 -5 5 -25 9 -45 10 -135 5 -224 5 -229 0 -3 -3 10
-5 28 -4 19 0 45 -5 59 -12 17 -9 25 -10 28 -1 2 6 8 11 14 11 6 0 5 -7 -3
-16 -10 -13 -10 -17 2 -25 19 -12 7 -11 -26 1 -39 15 -155 38 -150 29 3 -4
-30 -10 -73 -15 l-77 -7 54 -9 c70 -11 77 -18 17 -18 -26 0 -57 -5 -68 -11
-15 -8 -19 -8 -14 0 4 6 1 11 -6 11 -9 0 -9 3 2 10 13 9 13 11 0 20 -13 8 -12
10 4 10 15 0 17 3 9 11 -8 8 -17 7 -34 -5 -16 -11 -47 -16 -99 -17 -61 -1 -69
-2 -45 -10 17 -5 36 -7 44 -4 8 3 21 -1 30 -9 9 -8 30 -16 46 -19 17 -2 -2 -3
-41 -3 -50 1 -70 4 -67 12 5 14 -155 23 -227 13 l-45 -6 40 -4 c22 -1 60 -2
85 -1 34 1 40 -1 25 -8 -11 -5 -33 -9 -50 -10 -28 -2 -28 -2 -6 -9 39 -11 -92
-36 -178 -34 -40 1 -99 -4 -129 -12 -65 -17 -128 -19 -137 -5 -4 6 18 10 60
10 36 0 89 7 116 16 39 13 59 14 83 7 19 -6 56 -7 90 -2 58 8 85 18 50 20 -18
0 -18 1 1 10 13 6 -3 7 -49 3 -37 -3 -66 -2 -63 3 3 5 -58 9 -136 9 -97 0
-125 -2 -90 -7 29 -4 65 -10 80 -13 18 -4 23 -3 15 2 -8 6 6 8 38 6 59 -3 79
-12 26 -12 -19 0 -49 -7 -67 -16 -36 -18 -65 -21 -74 -7 -3 5 9 11 27 13 18 2
-4 6 -49 8 -45 3 -78 1 -74 -3 5 -5 25 -9 45 -9 60 0 40 -15 -21 -17 -73 -2
-101 -10 -82 -22 9 -5 -11 -9 -53 -9 -37 0 -69 -4 -72 -9 -9 -14 -87 -20 -156
-12 -43 5 -53 9 -30 10 28 1 32 4 18 11 -17 10 -68 -5 -68 -21 0 -10 27 -19
63 -19 27 -1 29 -2 14 -11 -13 -8 -32 -7 -67 1 -27 6 -58 9 -69 5 -13 -4 -21
-2 -21 5 0 8 -10 9 -31 5 -17 -4 -95 -7 -172 -8 -78 0 -151 -4 -162 -9 -12 -5
27 -7 100 -6 85 2 119 0 118 -8 -2 -9 8 -9 35 -3 20 5 53 12 72 15 34 6 35 6
13 -10 -30 -23 -140 -27 -153 -6 -8 13 -11 13 -19 1 -7 -10 -21 -12 -56 -7
-29 5 -45 4 -41 -2 10 -17 -105 -32 -194 -26 -61 5 -82 3 -75 -4 6 -6 46 -13
90 -15 79 -3 79 -3 -20 -5 -55 -1 -107 2 -115 8 -9 5 -19 5 -27 -2 -8 -6 -81
-12 -184 -14 -94 -1 -174 -6 -177 -9 -4 -3 80 -5 185 -3 105 2 189 0 187 -4
-3 -4 53 -5 123 -3 126 5 127 5 78 -10 -27 -8 -60 -13 -73 -10 -12 3 -116 5
-230 4 -114 0 -229 0 -256 1 -28 0 -63 -5 -80 -12 -23 -9 -31 -9 -34 0 -2 7
-8 10 -13 6 -5 -3 -3 -12 5 -19 10 -11 22 -12 47 -5 40 12 306 14 295 3 -8 -8
-32 -9 -441 -17 -296 -5 -285 -5 -285 -15 0 -6 64 -9 158 -8 86 2 137 0 112
-4 l-45 -6 52 -1 c28 -1 55 3 58 9 5 7 25 8 59 4 107 -15 73 -22 -103 -23
-100 0 -190 -4 -201 -7 -11 -4 -20 -2 -20 4 0 14 -230 7 -256 -7 -13 -7 11
-10 84 -9 67 1 106 -3 114 -11 9 -9 2 -12 -32 -12 -284 -3 -399 -6 -404 -11
-9 -8 122 -21 135 -13 6 3 49 8 96 11 65 4 84 2 78 -7 -4 -7 -20 -10 -36 -8
-15 3 -26 1 -24 -2 6 -9 -89 -30 -128 -29 -31 1 -31 1 -7 9 17 6 -3 9 -65 11
-135 4 -259 -2 -270 -13 -7 -7 18 -8 75 -5 l85 6 -60 -14 c-52 -11 -55 -13
-25 -15 19 -1 44 -5 55 -10 16 -7 12 -9 -20 -11 -37 -2 -36 -3 15 -9 l55 -7
-57 -1 c-65 -2 -97 6 -76 19 16 10 -119 10 -212 -1 l-65 -7 55 -3 c30 -2 71
-5 90 -6 19 -2 78 -6 130 -10 140 -11 58 -21 -105 -13 -95 4 -142 3 -175 -7
-25 -7 -65 -17 -90 -22 l-45 -10 45 0 c25 0 92 5 150 12 58 7 107 12 108 10 7
-5 -73 -24 -103 -24 l-30 -1 30 -15 c26 -12 27 -14 5 -9 -63 14 -160 18 -160
6 0 -6 -12 -11 -26 -11 -14 0 -22 4 -19 10 4 6 -25 8 -77 5 -61 -3 -71 -2 -38
4 l45 8 -47 1 c-27 1 -48 -2 -48 -8 0 -5 -12 -9 -27 -10 -55 0 -83 -5 -83 -14
0 -5 31 -6 70 -2 47 5 70 4 70 -3 0 -6 -15 -12 -32 -13 -20 -1 -9 -4 27 -9
l60 -7 -65 4 c-151 7 -318 9 -302 2 11 -4 6 -7 -16 -7 -20 -1 -31 3 -27 9 8
12 15 13 -77 -5 -43 -8 -84 -12 -91 -9 -8 3 -20 -3 -28 -12 -13 -16 -11 -17
21 -10 19 4 66 10 104 13 55 5 68 4 61 -7 -6 -10 6 -11 58 -6 37 4 76 5 87 1
18 -6 19 -8 4 -22 -8 -9 -36 -18 -62 -20 -35 -3 -43 -2 -32 6 8 6 31 11 50 11
23 0 30 3 22 9 -8 4 -34 4 -59 0 -24 -5 -61 -5 -81 0 -21 4 -71 4 -112 0 -41
-4 -131 -13 -200 -19 -69 -7 -150 -20 -180 -30 -90 -29 -195 -50 -257 -50 -32
-1 -80 -7 -108 -16 l-50 -14 55 5 c191 17 353 40 371 51 9 5 179 -22 187 -31
3 -3 -35 -5 -84 -4 -60 1 -81 4 -64 9 l25 8 -26 1 c-14 1 -39 -3 -55 -9 -44
-14 -364 -42 -407 -36 -43 7 -87 -1 -87 -16 0 -7 36 -9 103 -5 l102 6 -100
-14 c-55 -8 -125 -14 -155 -15 -78 -1 -135 -11 -118 -21 15 -10 17 -10 -174
-12 -76 -1 -130 1 -120 5 9 4 -25 5 -77 1 -72 -4 -95 -3 -101 7 -7 11 -11 11
-25 0 -14 -11 -18 -11 -25 -1 -4 8 -12 11 -18 7 -6 -3 -28 -7 -51 -8 -22 -1
-38 -5 -36 -9 3 -4 -1 -9 -7 -12 -7 -2 57 -4 142 -5 278 -1 319 -3 325 -13 4
-5 11 -6 17 -2 7 3 32 6 57 4 25 -1 68 3 94 8 31 5 45 5 39 -1 -5 -5 -52 -16
-103 -24 -52 -8 -113 -19 -137 -24 -23 -6 -58 -10 -77 -10 -20 0 -37 -6 -43
-16 -5 -8 -28 -18 -52 -21 -31 -4 -41 -3 -36 5 5 9 -12 12 -62 12 -87 0 -132
-9 -132 -26 0 -13 13 -13 147 1 23 3 45 0 48 -5 10 -17 72 -11 147 14 111 36
261 61 284 48 17 -10 16 -12 -11 -13 -61 -4 -71 -5 -143 -14 -47 -5 -69 -11
-60 -16 9 -6 5 -9 -13 -9 -14 0 -31 -6 -37 -12 -9 -9 -66 -15 -180 -19 -92 -3
-176 -9 -187 -14 -17 -8 -18 -7 -7 7 7 9 9 18 5 21 -9 5 -139 -16 -163 -26 -8
-3 -28 -8 -45 -10 -16 -2 4 -5 45 -6 83 -3 189 -17 150 -20 -14 -1 -83 -4
-155 -6 -84 -2 -148 -8 -180 -19 -27 -9 -67 -16 -87 -16 -22 0 -38 -5 -38 -11
0 -9 35 -10 132 -4 168 10 189 12 257 19 45 4 50 3 26 -4 -50 -16 -317 -42
-367 -35 -44 5 -66 -6 -35 -18 9 -4 9 -6 0 -6 -12 -1 -19 -41 -7 -41 3 0 45
11 94 25 98 27 164 34 95 10 -22 -8 -75 -22 -118 -31 -61 -13 -77 -21 -77 -35
0 -10 9 -19 23 -22 l22 -4 -22 -2 c-20 -1 -23 -6 -23 -47 l0 -46 44 3 c24 2
42 1 39 -3 -2 -5 -22 -8 -44 -8 l-39 0 0 -2030 0 -2030 3525 0 3525 0 0 23 c0
15 -3 18 -8 9 -6 -9 -12 -5 -20 13 -21 45 -15 65 23 81 20 8 33 19 30 24 -3 5
6 12 20 16 34 8 33 34 -3 34 -41 0 -56 30 -35 71 12 25 13 36 4 50 -12 20 -15
41 -3 23 12 -19 46 -24 66 -9 17 13 17 17 5 31 -11 13 -11 18 -1 21 6 3 12 16
12 29 0 13 5 24 10 24 6 0 10 4 10 10 0 6 -9 6 -25 0 -14 -5 -25 -7 -25 -5 0
10 65 64 78 65 20 0 14 -16 -10 -29 -14 -7 -15 -9 -5 -6 15 4 17 1 12 -15 -4
-13 -1 -22 9 -26 22 -9 40 5 26 21 -6 7 -11 29 -12 50 -1 30 -6 39 -27 47
l-26 11 25 7 c16 5 19 8 8 9 -19 1 -26 31 -8 31 6 0 10 7 10 16 0 12 6 15 21
11 26 -7 49 1 49 17 0 13 64 66 79 66 6 0 11 -9 11 -20 l0 -21 22 21 c12 11
22 33 23 48 0 18 7 30 22 37 12 5 28 21 35 35 16 31 38 49 61 50 19 0 23 25 6
35 -6 5 -4 12 8 20 10 7 15 17 11 21 -12 11 46 61 80 69 26 5 33 13 38 41 3
18 9 32 13 30 3 -2 14 6 23 19 16 21 16 24 1 29 -14 6 -14 8 3 20 10 8 23 12
30 9 15 -5 25 35 10 41 -6 2 -2 5 9 5 16 1 17 3 5 11 -18 11 -8 23 14 14 9 -3
16 -16 16 -29 0 -19 8 -25 51 -35 35 -9 53 -19 56 -31 5 -17 7 -17 30 -2 21
14 26 14 34 2 6 -10 9 -10 9 -1 0 16 29 15 64 -3 22 -12 32 -13 43 -4 17 14
125 20 134 7 3 -5 17 -4 33 3 19 9 30 9 37 2 8 -8 21 -4 47 13 29 20 46 24 93
22 48 -2 62 2 82 20 13 12 31 22 40 22 10 0 28 6 40 14 12 8 45 17 72 21 28 4
56 11 62 17 7 6 27 8 44 6 26 -4 32 -1 41 21 6 14 10 36 9 48 -2 16 7 26 33
38 19 9 40 14 45 10 6 -3 11 -1 11 4 0 6 16 11 35 11 19 0 35 -3 35 -7 0 -5
33 -6 74 -3 81 5 116 25 116 65 0 34 51 76 101 82 24 4 54 12 65 20 12 8 35
16 50 19 39 7 69 37 83 84 15 52 42 76 93 84 22 4 54 17 72 30 42 33 129 66
172 66 19 0 51 -7 71 -15 19 -8 44 -15 55 -15 21 0 108 -47 108 -59 0 -3 36
-7 80 -7 43 -1 78 2 77 7 -1 4 7 15 18 24 20 16 19 16 -5 9 -21 -6 -23 -5 -13
8 7 8 10 17 7 21 -3 3 4 8 16 12 12 4 19 12 17 18 -2 7 0 20 4 29 6 11 4 21
-4 30 -8 7 -12 19 -9 26 2 6 -3 12 -12 12 -43 0 1 41 61 59 32 9 41 15 36 28
-8 20 22 43 54 43 21 0 28 10 24 34 -1 4 3 14 9 21 8 10 7 14 -2 18 -8 4 -7 6
5 6 26 1 21 20 -8 27 -14 3 -25 13 -25 23 0 9 -9 31 -21 50 -43 71 1 103 117
81 55 -11 65 -10 90 6 20 13 48 19 98 20 39 1 84 6 101 13 41 17 155 -6 155
-30 0 -5 6 -9 14 -9 7 0 25 -9 39 -20 14 -11 37 -20 51 -20 14 0 34 -10 46
-22 21 -23 26 -38 11 -38 -5 0 -6 -12 -2 -27 9 -36 53 -47 48 -13 -2 12 -10
26 -18 31 -11 7 -8 9 9 9 13 0 35 -9 48 -19 16 -13 41 -19 75 -19 60 -1 67 -5
45 -28 -22 -22 -15 -27 19 -14 21 8 25 14 17 22 -15 15 19 40 78 58 25 8 59
22 75 32 37 22 63 23 87 1 15 -13 18 -13 18 -2 0 17 83 45 100 34 6 -4 22 0
35 9 35 23 42 20 47 -16 4 -27 -1 -37 -30 -64 -36 -33 -52 -35 -52 -8 0 8 -4
14 -9 14 -5 0 -12 8 -14 17 -3 11 -5 7 -6 -9 -1 -21 -6 -28 -21 -28 -11 0 -23
-7 -25 -15 -14 -43 -17 -50 -22 -37 -7 17 -21 15 -45 -8 -20 -18 -22 -18 -34
-2 -13 16 -13 16 -14 0 0 -22 -3 -22 -42 -2 -30 15 -32 15 -45 -2 -7 -10 -13
-21 -13 -26 0 -4 -13 -8 -30 -8 -23 0 -30 -4 -30 -20 0 -11 -5 -20 -12 -20 -9
0 -9 -3 0 -12 17 -17 15 -33 -3 -18 -18 15 -19 11 -4 -27 5 -15 7 -24 3 -20
-11 11 -34 -13 -27 -29 3 -8 -1 -14 -11 -14 -10 0 -16 8 -16 21 0 19 -4 21
-31 15 -17 -3 -42 -6 -55 -6 -33 0 -48 -39 -34 -90 6 -21 17 -41 26 -44 8 -3
12 -10 9 -16 -3 -5 -1 -10 5 -10 6 0 15 11 20 25 6 15 17 25 30 25 11 0 23 7
27 16 3 8 11 13 18 10 12 -4 55 44 55 63 0 5 14 18 30 28 17 9 30 23 30 30 0
7 4 13 9 13 6 0 11 15 13 32 3 34 38 55 38 24 0 -9 -5 -16 -10 -16 -7 0 -8
-13 -5 -34 6 -28 3 -35 -12 -39 -10 -3 12 -3 48 0 47 3 69 1 74 -7 9 -15 -14
-32 -33 -25 -8 3 -25 2 -39 -1 -23 -6 -25 -10 -19 -45 5 -29 3 -37 -7 -33 -13
4 -115 -81 -106 -89 2 -3 15 -8 28 -12 20 -6 23 -4 18 9 -8 21 2 48 15 40 5
-4 23 3 38 15 16 11 47 23 69 27 39 6 41 5 41 -20 0 -14 -4 -26 -10 -26 -15 0
-32 -40 -22 -53 11 -15 9 -56 -4 -78 -9 -16 -65 -49 -83 -49 -5 0 -8 11 -7 25
3 21 1 23 -16 14 -15 -8 -24 -7 -37 5 -20 18 -36 21 -26 6 3 -5 1 -10 -5 -10
-6 0 -22 -11 -36 -25 -14 -14 -29 -25 -34 -25 -5 0 -12 -9 -15 -20 -3 -11 -13
-20 -20 -20 -8 0 -17 -11 -21 -25 -3 -14 -13 -25 -20 -25 -10 0 -13 7 -8 25 4
15 2 25 -5 25 -6 0 -11 -4 -11 -10 0 -5 -16 -10 -35 -10 -43 0 -86 -26 -78
-46 5 -15 -15 -19 -33 -6 -15 11 -44 55 -44 68 0 7 11 11 24 10 19 -1 22 -4
14 -14 -20 -24 6 -31 42 -11 19 10 29 19 21 19 -11 0 -11 3 -1 15 18 21 32 19
25 -5 -5 -15 -3 -18 9 -14 19 7 20 18 5 46 -8 15 -8 19 0 13 6 -3 20 3 29 16
17 20 20 21 46 7 26 -13 26 -15 10 -29 -16 -12 -17 -12 -11 4 6 15 4 16 -13 7
-25 -13 -26 -26 -2 -32 21 -6 66 27 58 41 -3 5 3 7 14 4 24 -6 25 0 4 32 -9
14 -12 25 -6 25 6 0 8 9 5 20 -4 16 0 20 18 20 29 0 18 10 -29 27 -50 17 -49
17 -45 -19 2 -18 0 -27 -3 -20 -7 15 -24 16 -24 2 0 -14 -92 -106 -102 -103
-5 2 -8 -2 -8 -7 0 -6 -5 -10 -12 -10 -6 0 -9 3 -6 6 4 3 0 21 -8 40 -21 49
-10 60 38 40 11 -5 27 -1 44 13 24 19 25 21 8 27 -11 3 -31 10 -46 16 -31 12
-50 3 -46 -20 2 -9 -3 -16 -9 -15 -7 2 -13 -2 -13 -8 0 -5 -4 -8 -8 -5 -11 6
-52 -21 -52 -35 0 -5 11 -9 25 -9 26 0 30 -7 17 -26 -10 -16 -48 0 -62 27 -10
18 -8 26 21 55 18 19 28 34 21 34 -7 0 -12 -3 -12 -7 0 -5 -11 -9 -25 -9 -14
-1 -25 3 -25 9 0 6 -3 7 -6 4 -4 -4 -21 4 -38 16 -17 12 -37 21 -44 19 -8 -2
-20 2 -28 9 -8 6 -17 9 -20 6 -4 -3 -13 0 -21 8 -17 17 -33 19 -33 5 0 -6 -21
1 -47 15 -52 27 -63 30 -63 16 0 -5 10 -11 23 -13 17 -2 21 -9 19 -30 -2 -21
1 -26 13 -22 11 5 15 -1 15 -22 -1 -33 -18 -59 -40 -59 -8 0 -15 -7 -15 -15 0
-8 -4 -20 -7 -26 -4 -6 -4 -14 -1 -18 10 -10 11 -46 1 -40 -4 3 -8 0 -8 -5 0
-6 6 -11 13 -11 30 0 36 -22 15 -58 -17 -31 -18 -37 -5 -47 12 -9 13 -14 3
-27 -10 -14 -15 -15 -25 -5 -11 10 -12 5 -6 -23 4 -19 4 -32 0 -28 -4 4 -10
22 -14 39 -8 40 -32 53 -25 14 6 -32 -15 -85 -33 -85 -18 0 -27 -47 -15 -74 9
-20 7 -25 -14 -35 -13 -6 -24 -15 -24 -21 0 -6 -10 -10 -22 -8 -15 2 -24 -3
-26 -14 -2 -12 3 -16 21 -14 13 2 29 6 35 10 7 4 12 1 12 -7 0 -8 -11 -18 -25
-21 -14 -4 -23 -11 -20 -16 3 -6 -1 -10 -11 -10 -13 0 -14 -3 -5 -13 6 -8 8
-17 4 -21 -11 -11 -14 -46 -4 -46 5 0 11 6 14 13 2 6 8 9 12 5 4 -4 0 -16 -8
-28 -8 -12 -18 -17 -21 -12 -3 5 -16 7 -29 5 -18 -4 -23 0 -23 16 0 12 4 21 8
21 4 0 8 7 8 15 0 8 -4 15 -10 15 -5 0 -13 0 -17 0 -5 0 -13 15 -19 33 -8 23
-16 31 -30 29 -15 -3 -13 1 8 17 14 12 31 21 37 21 6 0 15 8 20 18 7 14 3 21
-21 35 -28 16 -30 16 -35 -1 -4 -18 -41 -47 -49 -39 -6 5 20 57 29 57 4 0 2
10 -5 23 -7 12 -11 29 -10 38 3 17 -53 47 -65 35 -3 -3 -1 -6 7 -6 9 0 9 -4 3
-12 -6 -7 -9 -21 -8 -30 2 -10 -2 -21 -8 -25 -7 -4 -4 -9 8 -13 14 -5 9 -11
-28 -28 -43 -20 -67 -57 -33 -50 15 3 16 1 16 -27 0 -21 -30 -19 -30 3 0 9 -7
25 -14 35 -12 15 -15 15 -25 3 -13 -15 -23 -128 -12 -122 3 2 13 -3 21 -12 13
-14 12 -15 -3 -9 -14 5 -18 2 -16 -11 3 -33 -1 -40 -32 -51 -18 -6 -34 -11
-35 -11 -10 0 -2 26 12 42 16 16 15 18 -1 24 -10 4 -21 1 -26 -7 -8 -12 -10
-12 -18 1 -5 8 -7 18 -5 22 3 5 -5 17 -18 28 l-23 20 28 21 c25 20 38 59 18
59 -5 0 -17 3 -25 6 -12 5 -15 2 -10 -10 7 -19 3 -20 -30 -5 -14 7 -23 16 -19
22 12 19 8 77 -5 82 -8 3 -12 19 -11 42 1 21 -2 46 -6 56 -5 13 -2 17 13 17
11 0 26 7 33 16 11 14 9 19 -11 35 -25 19 -25 19 -45 -6 -14 -17 -24 -22 -34
-16 -8 5 -20 7 -26 4 -7 -2 -22 8 -34 23 -11 15 -21 24 -21 21 0 -3 -20 1 -45
10 -44 14 -114 12 -116 -5 0 -4 -2 -33 -5 -64 -3 -36 -1 -58 6 -58 5 0 10 -7
10 -15 0 -17 16 -20 25 -5 9 15 36 12 57 -7 17 -15 18 -15 18 0 0 10 5 17 11
17 6 0 25 11 43 25 18 14 44 25 57 24 13 0 19 -3 12 -5 -7 -3 -9 -12 -6 -20 3
-8 1 -14 -5 -14 -5 0 -12 -8 -14 -18 -6 -21 -46 -26 -67 -9 -12 10 -13 7 -9
-21 4 -27 0 -37 -20 -53 -26 -20 -24 -22 18 -20 46 3 62 7 69 19 9 14 61 34
61 23 0 -5 -7 -11 -15 -15 -8 -3 -15 -12 -15 -20 0 -10 -6 -13 -15 -9 -9 3
-22 -2 -30 -13 -15 -20 -21 -84 -7 -84 15 0 30 16 33 35 5 25 41 31 59 11 10
-13 9 -17 -4 -22 -12 -5 -13 -10 -5 -26 8 -15 8 -19 0 -14 -19 12 -32 -3 -21
-24 7 -13 6 -21 -5 -30 -8 -7 -15 -19 -15 -26 0 -17 52 -19 81 -4 16 9 21 7
29 -14 5 -13 7 -37 4 -52 -3 -15 0 -30 7 -34 16 -11 2 -30 -17 -23 -9 3 -15
16 -14 32 4 52 1 59 -25 57 -14 0 -24 -5 -23 -11 5 -24 -13 -61 -34 -70 -31
-14 -43 -62 -17 -70 22 -7 28 -65 7 -65 -23 0 -39 16 -33 32 8 19 -16 38 -60
48 -32 7 -37 5 -44 -13 -8 -21 15 -61 30 -51 4 2 5 -6 2 -18 -4 -22 -4 -22 8
-3 7 11 20 25 28 32 13 9 18 6 28 -19 16 -38 17 -36 -9 -40 -16 -2 -25 -12
-28 -33 -4 -16 -11 -29 -17 -28 -7 2 -20 -15 -29 -37 -10 -22 -24 -40 -31 -40
-21 0 -15 -37 7 -43 12 -3 20 -14 20 -25 0 -28 17 -36 29 -15 6 10 10 14 10 8
0 -5 -6 -19 -14 -29 -15 -19 -16 -19 -43 7 -35 33 -42 34 -42 2 0 -18 4 -23
15 -19 17 7 21 -21 5 -31 -5 -3 -10 -1 -10 4 0 6 -6 11 -14 11 -19 0 -29 -30
-12 -36 23 -9 26 -44 6 -64 -11 -11 -15 -22 -10 -25 17 -10 11 -21 -11 -22
-26 -2 -39 -14 -21 -20 17 -7 15 -27 -7 -54 -10 -13 -21 -33 -24 -44 -3 -13
-5 -9 -6 13 0 18 -8 49 -16 69 -8 19 -15 38 -15 40 0 3 7 3 15 -1 8 -3 15 -1
15 4 0 6 12 10 28 11 15 0 21 3 15 6 -9 3 -8 11 4 30 16 23 15 27 -10 77 -15
29 -27 61 -27 70 0 9 -4 14 -10 11 -5 -3 -10 -2 -10 4 0 15 -42 51 -52 45 -10
-6 -11 -25 0 -21 4 1 8 -2 10 -8 1 -6 -23 -11 -55 -13 -55 -3 -57 -3 -40 16
21 23 21 29 2 48 -27 27 -14 104 17 104 4 0 7 -21 7 -47 -2 -66 2 -120 7 -106
3 7 12 9 20 6 10 -4 14 2 14 20 0 14 -3 27 -7 30 -5 2 -3 2 4 1 18 -4 27 16
14 29 -13 13 -15 67 -2 67 5 0 12 -13 16 -29 6 -28 71 -98 82 -88 3 3 -10 19
-27 34 -30 27 -31 31 -19 51 20 32 27 28 40 -23 13 -52 29 -69 29 -31 0 26 23
36 35 16 10 -16 35 -12 35 6 0 8 4 13 9 10 5 -4 7 3 4 14 -4 16 -2 19 13 14
13 -4 9 3 -11 21 -26 23 -27 26 -7 20 35 -10 26 13 -14 37 -37 21 -39 31 -19
83 6 16 5 18 -5 8 -10 -9 -20 -6 -46 14 -19 14 -31 29 -28 34 3 5 0 9 -6 9 -7
0 -10 -7 -6 -15 3 -8 1 -15 -4 -15 -6 0 -10 13 -10 29 0 21 6 32 20 36 35 11
70 56 59 76 -12 24 -12 59 2 59 6 0 0 14 -12 31 -23 33 -23 33 24 60 22 13 13
29 -17 29 -44 0 -57 50 -19 73 11 7 12 12 2 23 -10 13 -15 12 -32 -3 -11 -10
-17 -12 -13 -5 5 9 1 15 -13 19 -22 6 -27 18 -11 28 20 12 10 26 -11 15 -11
-7 -18 -17 -16 -25 7 -16 -21 -57 -34 -50 -5 4 -9 15 -9 26 0 11 -7 19 -17 19
-9 0 -14 -3 -10 -6 3 -3 -1 -26 -8 -51 l-13 -44 56 7 c31 3 62 7 67 8 6 0 10
-9 9 -21 0 -16 5 -23 19 -23 16 0 17 -2 7 -15 -10 -12 -10 -19 -2 -27 7 -7 12
-20 12 -29 0 -10 5 -19 11 -21 7 -2 7 -12 0 -31 -8 -19 -17 -26 -33 -24 -30 3
-38 -32 -9 -40 29 -8 26 -25 -11 -58 -29 -26 -37 -26 -41 2 0 5 -7 14 -14 22
-12 11 -11 16 2 31 11 12 13 20 6 25 -6 3 -18 -10 -28 -30 -12 -25 -21 -34
-34 -30 -22 7 -34 -11 -13 -19 17 -6 10 -26 -9 -26 -7 0 -6 4 3 11 13 9 13 10
0 6 -8 -2 -14 -11 -12 -18 2 -8 4 -32 4 -55 0 -22 4 -47 9 -55 5 -8 9 -9 9 -2
0 6 10 9 23 7 20 -4 20 -4 2 5 -11 4 -24 6 -29 3 -5 -2 -7 1 -4 8 2 7 18 21
35 30 37 19 97 15 89 -6 -3 -7 -1 -16 4 -19 15 -9 12 -25 -5 -25 -8 0 -15 -6
-15 -14 0 -8 -7 -16 -15 -20 -8 -3 -15 -15 -15 -26 0 -17 -4 -19 -27 -14 -34
8 -33 8 -60 -1 -13 -4 -23 -13 -23 -20 0 -7 -8 -15 -19 -18 -10 -2 -20 -16
-23 -30 -6 -30 -2 -37 22 -37 11 0 17 -10 18 -36 3 -36 2 -37 -28 -31 -25 5
-30 3 -30 -12 0 -10 -7 -21 -15 -24 -17 -7 -30 9 -15 18 18 11 11 33 -9 28
-16 -4 -20 1 -23 29 -4 42 -34 48 -31 5 1 -15 -2 -25 -7 -22 -5 3 -11 1 -15
-5 -3 -5 1 -10 9 -10 9 0 16 -6 16 -14 0 -8 9 -17 20 -21 40 -13 -19 -75 -71
-75 -10 0 -20 6 -22 13 -3 6 -6 2 -6 -10 -1 -12 -6 -25 -13 -29 -8 -5 -9 0 -5
16 7 29 -9 45 -56 54 -34 6 -37 5 -37 -17 0 -13 -11 -36 -24 -50 -13 -14 -26
-37 -30 -52 -6 -23 -11 -26 -31 -21 -18 5 -25 2 -25 -9 0 -22 47 -19 67 5 12
14 19 16 24 8 6 -9 15 -4 33 15 14 15 30 27 36 27 16 0 12 -30 -5 -36 -8 -4
-12 -11 -8 -17 4 -6 0 -8 -10 -4 -19 7 -37 -19 -37 -52 0 -12 -4 -21 -10 -21
-5 0 -10 -7 -10 -15 0 -11 10 -6 30 15 16 16 39 30 51 30 19 0 20 -4 14 -42
-3 -24 -9 -51 -11 -60 -4 -13 -1 -16 10 -12 9 4 17 19 17 38 1 23 3 25 6 9 2
-13 11 -23 19 -23 9 0 21 -6 28 -13 11 -10 10 -15 -2 -27 -14 -13 -15 -12 -9
3 3 9 2 19 -2 22 -10 6 -21 -29 -21 -68 0 -16 4 -26 10 -22 12 8 13 -5 1 -24
-5 -7 -14 -10 -20 -7 -6 4 -11 2 -11 -3 0 -6 9 -11 20 -11 11 0 20 5 20 10 0
6 11 15 24 21 13 6 27 20 29 31 4 12 12 18 23 16 13 -2 17 -15 18 -53 1 -27
-2 -55 -6 -61 -5 -6 0 -22 10 -35 10 -13 24 -36 31 -51 18 -36 27 -35 46 2 9
17 20 28 25 25 6 -4 10 -1 10 6 0 8 4 8 15 -1 10 -9 15 -9 15 -1 0 6 5 11 10
11 6 0 10 -9 10 -20 0 -25 19 -26 26 -2 3 9 11 27 17 39 11 25 5 39 -13 28 -6
-4 -9 -13 -6 -21 3 -7 1 -16 -4 -19 -15 -9 -12 31 3 44 8 6 55 14 106 17 82 6
91 5 85 -10 -4 -9 -3 -16 2 -15 18 3 34 -1 34 -10 0 -5 -20 -6 -45 -3 -41 4
-45 3 -55 -22 -5 -15 -14 -24 -20 -21 -5 3 -12 -6 -16 -20 -5 -19 -11 -24 -25
-20 -13 5 -19 1 -19 -9 0 -13 8 -15 43 -9 23 4 51 7 62 7 20 1 35 13 35 29 0
4 -11 5 -25 1 -18 -4 -25 -2 -25 8 0 8 6 15 13 15 6 0 19 3 27 7 18 7 37 -29
32 -58 -3 -14 -10 -17 -31 -13 -15 3 -33 2 -41 -4 -11 -6 -5 -9 22 -9 49 0 68
8 68 31 0 10 7 19 15 19 8 0 15 8 15 18 0 11 9 27 19 36 19 17 21 17 42 -3 14
-12 17 -21 10 -21 -8 0 -11 -8 -8 -20 3 -11 0 -20 -6 -20 -6 0 -1 -9 11 -20
22 -21 62 -27 62 -10 0 6 -10 10 -22 10 -18 0 -20 2 -8 9 8 6 18 7 22 5 4 -3
7 7 6 21 -2 19 -7 25 -19 22 -11 -3 -21 4 -27 18 -15 32 5 47 68 53 44 4 48 6
33 17 -15 11 -15 17 -5 39 6 14 20 27 29 28 10 0 25 1 33 2 26 2 23 40 -4 52
-19 9 -26 9 -30 0 -3 -7 -5 -7 -5 2 -1 6 -8 12 -16 12 -8 0 -12 6 -9 14 3 8 1
17 -5 21 -11 6 -16 85 -6 85 3 0 14 -8 24 -18 45 -39 44 -39 68 -18 13 11 23
28 23 38 0 14 -6 16 -31 11 -30 -6 -31 -5 -20 16 7 11 16 21 21 21 6 0 10 5
10 10 0 18 -29 10 -40 -11 -9 -17 -14 -18 -26 -8 -13 10 -17 10 -24 0 -8 -14
-30 -7 -30 10 0 6 5 7 10 4 6 -4 10 8 10 30 0 22 -4 34 -10 30 -5 -3 -10 0
-10 8 0 8 -9 26 -21 41 -17 21 -18 27 -6 32 12 4 12 10 3 30 -6 13 -17 24 -24
24 -7 0 -11 -4 -8 -9 3 -5 -1 -12 -10 -15 -21 -8 -24 -8 -24 5 0 5 5 7 10 4
15 -9 12 7 -5 29 -18 23 -19 36 -4 36 5 0 7 -5 4 -11 -4 -6 2 -5 14 3 24 15
26 24 9 34 -7 4 -8 3 -4 -4 5 -8 1 -10 -10 -5 -11 4 -13 8 -6 11 7 2 12 10 12
18 0 8 7 14 15 14 8 0 15 -7 15 -15 0 -21 9 -19 35 8 48 46 75 60 75 37 0 -5
7 -10 15 -10 8 0 15 7 15 15 0 8 5 15 10 15 16 0 11 30 -6 37 -8 3 -20 1 -27
-6 -13 -13 -27 -15 -27 -3 0 4 10 12 22 17 12 6 24 17 26 25 5 13 3 13 -11 1
-25 -20 -35 14 -12 39 21 23 55 29 37 7 -12 -14 -5 -57 9 -57 5 0 9 9 9 21 0
11 4 18 10 14 5 -3 7 -12 4 -19 -9 -23 10 -26 36 -6 20 15 22 21 11 33 -18 22
3 61 30 54 10 -3 17 -1 13 4 -3 5 6 9 19 9 17 0 27 9 38 32 10 23 24 35 48 41
26 6 32 12 28 28 -3 12 1 23 13 29 23 12 70 13 70 1 0 -4 -11 -6 -25 -3 -21 3
-25 0 -25 -18 0 -22 1 -22 46 -3 6 2 14 -5 17 -16 3 -11 0 -22 -5 -23 -6 -2
-8 -13 -3 -26 9 -31 31 -22 27 12 -1 14 2 26 8 26 18 0 11 17 -10 23 -14 3
-20 14 -20 31 0 55 35 18 63 -66 4 -10 12 -15 21 -12 11 4 16 -9 21 -57 5 -44
4 -64 -4 -67 -14 -5 -15 -52 -1 -52 6 0 10 8 11 18 1 11 4 8 8 -8 9 -29 -7
-60 -26 -53 -7 3 -13 0 -13 -6 0 -6 -4 -11 -8 -11 -5 0 -7 13 -4 30 4 31 -11
42 -22 14 -3 -8 -10 -12 -16 -9 -15 10 -11 -37 5 -59 11 -15 15 -16 15 -5 0 8
10 16 22 16 16 2 19 0 9 -6 -10 -7 -11 -17 -5 -37 15 -52 13 -74 -7 -74 -11 0
-19 -6 -19 -12 0 -7 -3 -23 -6 -36 -5 -15 -3 -22 6 -20 6 2 16 -7 21 -20 8
-20 6 -23 -11 -17 -26 8 -25 1 1 -23 16 -16 19 -27 14 -56 -8 -42 -19 -51 -57
-48 -18 2 -28 -3 -28 -12 0 -21 33 -30 46 -12 13 18 35 21 50 6 6 -6 29 0 63
17 l54 27 23 -29 c22 -27 22 -30 6 -40 -9 -5 -18 -18 -20 -29 -2 -10 1 -15 7
-11 7 3 8 0 5 -9 -6 -16 -32 -29 -44 -21 -5 3 -14 21 -20 40 -6 19 -17 35 -23
35 -15 0 -41 -39 -32 -48 3 -4 10 0 14 7 6 9 11 10 15 2 4 -6 3 -11 -3 -11
-15 0 -10 -58 6 -64 11 -5 11 -10 -2 -35 -10 -21 -20 -28 -31 -24 -10 4 -17
-1 -20 -15 -4 -14 -12 -18 -27 -15 -17 3 -14 0 8 -13 17 -10 25 -19 18 -21 -7
-3 -13 -13 -13 -23 0 -10 -3 -20 -7 -22 -15 -6 -54 -68 -43 -68 5 0 10 6 11
13 1 6 4 1 8 -13 6 -20 3 -26 -13 -30 -11 -3 -21 -12 -24 -20 -3 -13 -2 -13 7
0 9 13 12 13 20 1 14 -21 43 -5 39 21 -2 17 3 24 19 26 36 5 66 -16 60 -44 -4
-24 -3 -24 70 -24 53 0 79 4 89 15 9 8 24 15 35 15 11 0 24 10 29 22 l9 23 0
-24 c1 -27 27 -50 56 -50 19 0 19 0 -2 18 -29 24 -21 61 13 61 29 0 32 25 5
42 -10 6 -17 18 -14 25 4 9 0 11 -13 6 -18 -7 -18 -6 -3 17 9 14 23 25 30 26
20 1 52 15 70 31 8 7 30 15 48 17 42 5 47 11 33 41 -8 18 -8 26 0 31 7 4 8 3
4 -5 -4 -6 0 -14 8 -17 9 -3 16 -13 16 -21 0 -17 -39 -52 -58 -53 -7 0 -15
-13 -18 -30 -7 -34 -11 -36 -35 -14 -19 17 -39 11 -39 -12 0 -8 5 -12 10 -9 6
4 8 11 5 16 -4 5 -1 9 5 9 6 0 8 -10 4 -25 -6 -23 -4 -25 25 -19 28 6 31 4 31
-20 0 -14 5 -26 11 -26 6 0 9 -6 6 -12 -2 -8 -16 -12 -34 -10 -28 3 -30 1 -26
-22 5 -27 -13 -38 -19 -12 -2 10 -8 7 -21 -10 l-18 -24 62 0 c51 0 65 4 80 22
11 11 19 25 19 30 0 4 12 8 28 8 21 0 30 -7 41 -31 13 -29 15 -30 24 -13 20
36 26 97 11 118 -8 11 -14 16 -14 11 0 -17 -17 10 -24 38 -6 26 -5 27 13 18
27 -15 30 -14 24 8 -3 11 -11 22 -19 25 -20 8 -18 28 2 24 10 -2 19 4 21 12 4
13 3 13 -6 0 -9 -12 -11 -12 -11 -1 0 11 -4 10 -19 -3 -18 -16 -19 -16 -24 11
-6 32 7 53 34 53 11 0 19 7 19 15 0 8 -4 15 -10 15 -5 0 -10 4 -10 9 0 5 11 8
25 7 15 0 23 -6 21 -13 -3 -7 0 -15 5 -19 7 -4 9 4 7 22 -2 24 1 30 20 32 12
2 22 -2 22 -8 0 -6 4 -9 9 -6 5 3 12 -1 15 -10 3 -8 14 -14 23 -12 14 3 17 12
15 46 -3 34 0 42 13 42 14 0 15 -3 6 -13 -6 -8 -8 -17 -4 -20 14 -15 29 -6 40
23 6 17 17 30 25 30 15 0 61 47 71 72 3 10 11 18 17 18 6 0 8 4 5 10 -3 5 -1
10 6 10 6 0 17 7 24 17 8 11 14 13 19 5 4 -7 2 -12 -3 -12 -6 0 -11 -5 -11
-12 0 -6 3 -9 6 -5 9 9 30 -14 39 -42 6 -21 9 -22 22 -8 11 11 12 20 5 34 -26
47 34 166 60 119 14 -25 29 -19 22 10 -4 17 -2 29 7 34 10 7 10 11 -1 25 -11
13 -11 18 2 32 9 8 21 12 27 9 16 -11 13 -55 -5 -74 -11 -10 -13 -17 -5 -20 6
-2 11 -18 11 -37 0 -18 7 -38 15 -45 8 -7 15 -17 15 -22 0 -6 6 -24 14 -41 7
-18 19 -47 26 -64 7 -18 16 -33 21 -33 5 0 9 -7 9 -16 0 -11 -5 -14 -16 -10
-9 3 -18 6 -20 6 -2 0 -4 9 -4 19 0 11 -9 21 -24 25 -16 4 -25 15 -29 35 -4
17 -14 30 -25 33 -11 3 -26 18 -33 34 -18 36 -64 44 -55 10 3 -11 8 -39 11
-62 5 -28 14 -43 28 -50 17 -7 22 -17 20 -43 -1 -19 -8 -38 -17 -43 -9 -5 -16
-16 -16 -23 0 -19 -2 -19 -80 5 -79 24 -94 25 -86 5 6 -16 -7 -18 -39 -6 -11
5 -25 4 -32 -1 -9 -8 -13 -6 -13 6 0 9 -4 16 -10 16 -18 0 -11 -18 16 -39 18
-14 24 -26 20 -39 -6 -16 -2 -19 19 -14 15 2 25 0 25 -7 0 -6 5 -11 10 -11 14
0 13 33 -2 48 -6 6 -9 15 -5 19 11 10 36 -29 37 -55 0 -13 8 -37 17 -55 9 -18
17 -39 19 -47 1 -8 5 -23 8 -32 6 -13 3 -15 -15 -11 -15 4 -20 3 -15 -5 4 -7
18 -12 31 -12 13 0 27 -4 30 -10 6 -10 -7 -14 -32 -11 -8 1 -10 -5 -7 -14 7
-17 20 -20 29 -5 4 6 11 8 16 5 5 -4 9 0 9 8 0 18 41 30 54 17 7 -7 4 -10 -6
-10 -11 0 -15 -6 -11 -20 3 -11 10 -20 15 -20 5 0 6 5 3 10 -3 6 1 13 9 16 9
3 13 11 9 18 -3 6 3 2 15 -8 12 -11 22 -15 22 -9 0 16 82 43 110 37 24 -5 24
-5 6 10 -11 9 -18 16 -15 17 2 0 23 2 46 4 l43 3 -6 -39 c-4 -24 -3 -39 4 -39
16 0 23 29 16 65 -5 28 -2 35 17 46 13 6 43 11 66 10 32 -1 43 3 43 14 0 8 5
15 11 15 6 0 9 -7 5 -15 -3 -8 -1 -15 4 -15 11 0 40 -29 40 -41 0 -5 -7 -9
-15 -9 -20 0 -20 -46 1 -54 26 -10 28 -7 10 13 -16 17 -16 19 6 26 13 4 25 8
28 9 3 2 19 8 35 16 17 7 24 14 18 17 -7 3 -13 9 -13 14 0 5 11 4 26 -1 22 -9
25 -7 22 7 -2 10 -12 19 -22 21 -10 2 -29 15 -41 28 -26 28 -47 32 -38 7 4
-11 3 -14 -5 -9 -7 4 -12 15 -12 24 0 19 78 102 97 102 15 0 18 -17 4 -22 -5
-2 -11 -17 -14 -35 -3 -17 -8 -37 -12 -42 -3 -6 -2 -18 3 -28 8 -14 12 -12 27
16 9 18 22 30 29 28 7 -3 18 4 24 14 8 12 8 19 2 19 -5 0 -10 10 -10 22 0 20
1 20 13 5 6 -9 20 -15 29 -14 21 4 36 17 20 17 -17 0 -15 35 3 50 12 10 15 10
15 -1 0 -8 14 -22 30 -31 25 -14 32 -15 44 -3 8 8 26 12 44 10 25 -3 30 0 29
14 -1 18 -8 20 -62 21 -41 1 -65 9 -65 22 0 6 -8 20 -17 30 -15 17 -15 21 -3
29 8 5 33 12 54 16 38 6 39 6 19 23 -19 15 -19 18 -6 44 10 19 20 26 33 23 11
-3 21 1 24 10 8 21 8 23 -8 23 -8 0 -17 7 -20 16 -9 24 -7 54 4 54 6 0 10 -13
10 -30 0 -35 13 -39 33 -10 8 11 17 17 20 13 4 -3 7 -1 7 6 0 7 6 18 13 24 18
18 85 47 107 47 13 0 20 7 20 19 0 11 3 27 7 37 4 12 2 15 -8 12 -8 -3 -13
-12 -11 -22 2 -9 0 -16 -3 -16 -8 0 -27 50 -31 82 -3 22 0 25 16 21 11 -3 20
-11 20 -19 0 -19 20 -28 33 -14 9 9 8 14 -5 24 -23 17 -23 22 5 30 22 6 21 7
-7 23 -24 12 -33 13 -49 3 -15 -9 -22 -9 -31 0 -8 9 -4 17 19 35 26 21 28 27
19 52 -9 26 -13 28 -70 29 -60 2 -61 1 -56 -25 4 -21 2 -24 -9 -13 -22 21 -42
15 -29 -8 8 -15 8 -20 -1 -18 -7 2 -14 -6 -16 -17 -2 -11 -9 -30 -15 -42 -12
-23 -3 -46 10 -27 10 15 73 45 82 39 12 -8 17 26 9 57 -4 15 -4 30 1 33 11 7
30 -59 29 -100 -1 -69 -41 -97 -71 -48 l-15 26 -7 -48 c-4 -26 -10 -54 -13
-61 -8 -21 -29 -17 -29 6 0 13 5 19 13 16 7 -3 13 -1 13 4 0 6 -5 10 -11 10
-6 0 -9 6 -7 12 3 7 -5 21 -18 30 -27 22 -34 22 -34 2 0 -8 4 -12 10 -9 6 3 7
-1 4 -9 -3 -9 -2 -16 3 -16 5 0 10 -11 11 -25 1 -16 -3 -25 -13 -25 -8 0 -15
8 -15 18 0 10 -7 27 -15 38 -15 19 -16 19 -13 -2 2 -12 -5 -31 -16 -43 -15
-17 -16 -23 -6 -36 14 -16 0 -21 -16 -5 -6 6 -10 1 -9 -16 0 -18 -7 -29 -22
-35 -19 -7 -22 -5 -21 24 0 18 9 42 20 54 11 12 18 26 14 31 -3 5 8 21 24 37
15 15 26 33 23 40 -2 8 7 21 21 30 14 10 26 24 26 33 0 10 -11 4 -31 -17 -32
-34 -44 -36 -33 -7 3 9 13 16 21 16 9 0 13 6 9 15 -3 9 0 15 9 15 8 0 15 5 15
10 0 16 -31 24 -40 11 -8 -14 -76 -5 -86 10 -11 18 -25 9 -19 -12 5 -14 0 -26
-13 -37 -17 -15 -18 -20 -6 -36 8 -12 21 -17 34 -13 16 4 20 0 20 -20 0 -16
-7 -27 -20 -30 -23 -6 -27 -31 -5 -39 8 -4 15 -17 15 -31 0 -20 -4 -24 -20
-20 -19 5 -29 -8 -11 -15 5 -2 12 -18 16 -37 5 -23 4 -31 -4 -27 -5 4 -19 -2
-30 -13 -40 -40 13 -37 58 3 l23 21 -6 -22 c-13 -41 4 -45 47 -13 44 32 70 39
61 16 -3 -8 -13 -12 -24 -9 -20 5 -46 -31 -41 -56 2 -12 0 -13 -12 -2 -12 10
-18 9 -28 -2 -11 -12 -16 -11 -32 7 -16 19 -18 19 -13 2 5 -13 2 -17 -9 -12
-10 4 -15 -1 -15 -15 0 -18 -2 -19 -29 -5 -33 17 -46 43 -31 61 6 8 5 18 -5
31 -14 18 -14 18 -15 -3 0 -13 -4 -23 -10 -23 -12 0 -13 15 -1 38 5 9 13 28
19 42 5 15 27 34 51 45 39 19 53 35 30 35 -14 0 -59 47 -59 62 0 5 7 8 14 5
10 -4 13 -1 9 9 -4 12 -14 14 -35 10 -24 -5 -30 -2 -40 22 -6 15 -12 22 -15
15 -3 -7 -9 -13 -14 -13 -5 0 -2 16 6 36 20 49 19 54 -11 54 -22 0 -24 3 -15
14 10 12 8 17 -8 26 -20 10 -21 8 -21 -34 0 -45 -10 -56 -51 -56 -23 0 -24 10
-4 36 8 10 15 26 15 35 0 8 12 26 26 40 14 13 32 39 39 56 8 20 21 33 32 33
33 1 61 34 60 71 -2 26 2 34 18 37 17 3 18 1 5 -8 -11 -9 -12 -13 -2 -17 6 -2
12 -13 12 -24 0 -10 5 -19 11 -19 7 0 9 -10 5 -25 -6 -23 -3 -25 25 -25 31 0
31 0 16 24 -21 32 -18 66 6 66 16 0 18 5 13 26 -6 21 -1 31 26 55 32 28 76 43
50 17 -7 -7 -12 -22 -12 -35 0 -20 5 -23 35 -23 24 0 38 -5 42 -16 8 -21 -10
-49 -29 -48 -8 1 -26 -16 -42 -37 -21 -30 -24 -39 -12 -39 9 0 16 -8 16 -19 0
-16 8 -19 51 -19 l51 0 -7 35 c-4 25 -2 40 10 53 13 14 14 25 6 63 -13 55 1
107 29 107 13 0 17 -5 13 -20 -6 -23 4 -25 28 -7 21 16 29 43 18 54 -13 13 34
23 53 12 7 -5 9 -9 3 -9 -10 0 42 -30 53 -30 3 0 -2 8 -11 18 -10 10 -14 22
-10 25 3 4 -1 7 -9 7 -23 0 -40 24 -27 37 8 8 6 19 -7 38 -18 28 -18 28 14 55
36 29 42 51 13 43 -20 -5 -34 10 -36 39 -2 20 3 22 24 9 8 -5 27 -3 49 6 19 8
42 11 51 7 9 -4 25 -8 36 -8 16 -1 20 -7 18 -33 -2 -26 0 -30 17 -26 10 3 26
-2 35 -11 27 -26 1 -111 -31 -105 -27 5 -44 -3 -44 -20 0 -11 -4 -23 -10 -26
-5 -3 -10 -1 -10 6 0 25 -17 -6 -24 -41 -3 -21 -3 -30 3 -22 7 11 9 11 14 -2
4 -9 13 -16 22 -16 14 0 21 29 16 67 -2 13 68 47 78 38 3 -3 -5 -8 -18 -12
-12 -3 -20 -11 -17 -18 3 -8 -2 -16 -10 -19 -23 -9 -17 -51 9 -65 15 -8 24
-23 25 -43 2 -26 0 -30 -18 -25 -23 6 -28 -11 -5 -19 20 -8 45 13 38 32 -3 8
0 14 7 14 7 0 10 8 7 20 -3 13 0 20 9 20 8 0 14 -4 14 -10 0 -5 10 -14 22 -21
18 -10 20 -9 15 5 -6 14 -3 15 13 6 16 -9 18 -15 10 -31 -15 -26 -4 -40 25
-33 19 5 27 0 39 -23 14 -26 15 -26 16 -5 0 12 -5 22 -11 22 -8 0 -7 5 1 16
11 13 10 16 -8 21 -25 6 -30 23 -8 23 13 0 34 38 24 44 -1 1 -16 8 -32 14 -28
12 -28 13 -11 32 10 11 24 20 32 20 9 0 13 16 13 55 0 47 -3 55 -19 55 -10 0
-30 -9 -44 -20 -16 -13 -28 -16 -32 -10 -3 5 1 10 10 10 9 0 14 4 11 9 -3 4
13 13 34 20 35 10 40 16 40 41 0 20 -5 30 -14 30 -8 0 -22 10 -31 23 -13 19
-17 20 -25 7 -13 -20 -13 -47 0 -55 6 -3 10 -13 10 -22 0 -15 -2 -14 -18 0
-24 22 -43 22 -36 0 5 -16 4 -16 -10 1 -8 10 -19 16 -23 13 -20 -12 -36 12
-34 50 2 21 4 48 5 61 0 12 7 22 14 22 6 0 12 5 12 10 0 6 -6 10 -12 10 -16 0
-40 -15 -39 -24 3 -22 0 -36 -8 -32 -11 7 -2 57 14 76 7 8 16 25 19 38 4 12
14 22 22 22 17 0 19 -21 3 -37 -7 -7 -1 -14 22 -22 17 -6 40 -11 51 -11 10 0
21 -7 24 -15 9 -24 22 -18 22 10 0 14 8 35 17 45 10 11 15 23 12 26 -10 11
-57 -25 -57 -43 0 -13 -7 -10 -30 12 l-30 29 22 23 c15 16 33 23 60 23 l38 0
0 80 c0 66 -3 80 -16 80 -8 0 -12 -4 -9 -10 3 -6 -5 -10 -19 -10 -16 0 -27 7
-31 21 -4 12 -12 18 -21 15 -8 -3 -14 -2 -14 2 0 4 -13 7 -29 8 -21 1 -28 -3
-24 -12 3 -9 -2 -14 -16 -14 -27 0 -27 8 5 36 17 17 37 24 65 24 29 0 47 7 65
25 14 14 28 25 32 25 12 0 12 63 0 78 -7 8 -8 16 -2 20 16 12 16 46 -1 58 -14
11 -14 13 0 27 20 20 19 24 -5 30 -21 5 -35 -19 -25 -46 8 -21 -12 -32 -31
-16 -11 9 -18 9 -26 1 -19 -19 -28 -14 -28 13 0 13 10 33 22 45 12 11 18 20
13 20 -4 0 -1 8 8 18 8 9 17 31 19 47 2 17 7 33 12 37 6 4 4 13 -3 22 -12 14
-11 16 7 16 11 0 22 -7 26 -15 9 -24 26 -17 26 10 0 20 -10 29 -60 52 -64 30
-73 40 -38 45 12 2 23 9 26 15 6 19 -29 29 -42 12 -6 -8 -19 -13 -28 -11 -24
5 -23 -9 2 -36 26 -27 25 -31 -2 -26 -13 3 -4 -5 19 -18 l43 -23 -18 -26 c-9
-14 -23 -24 -29 -22 -18 6 -16 -27 2 -41 12 -9 12 -14 -6 -36 -14 -17 -22 -21
-26 -12 -7 17 -23 15 -23 -4 0 -8 -13 -20 -30 -25 -16 -6 -30 -14 -30 -18 0
-4 -7 -8 -15 -8 -18 0 -19 5 -1 38 8 16 10 32 5 40 -6 10 -9 8 -9 -8 0 -13 -4
-23 -10 -23 -5 0 -10 5 -10 12 0 24 -11 -1 -15 -35 -4 -29 -1 -37 15 -42 10
-3 17 -12 14 -19 -6 -15 8 -22 81 -41 44 -12 51 -11 63 3 7 10 11 11 7 4 -3
-6 -2 -12 4 -12 5 0 9 -27 8 -62 -2 -59 -3 -63 -31 -73 -21 -7 -30 -7 -33 1
-2 6 -17 8 -34 6 -21 -3 -35 1 -47 16 -13 14 -22 18 -33 11 -21 -13 -32 -11
-26 6 4 8 2 17 -2 20 -5 3 -11 -1 -14 -9 -9 -23 -59 -26 -93 -5 -23 14 -33 16
-42 7 -6 -6 -15 -8 -19 -4 -4 4 -1 11 7 17 13 8 13 10 0 19 -17 11 -50 13 -50
3 0 -4 10 -21 22 -39 21 -30 23 -31 45 -17 25 17 43 10 43 -15 0 -12 9 -18 30
-19 18 -1 28 2 25 7 -4 6 -2 10 2 10 5 0 14 -9 21 -20 8 -13 9 -20 1 -20 -12
0 -39 -25 -39 -36 0 -5 5 -3 12 4 7 7 22 12 35 12 13 0 23 4 23 8 0 13 54 39
71 35 11 -3 15 -11 12 -24 -6 -20 -23 -27 -23 -8 0 6 -6 9 -12 7 -21 -7 -15
-33 7 -33 11 0 21 -8 23 -18 3 -13 -3 -17 -22 -17 -16 0 -26 -6 -26 -15 0 -8
-7 -15 -15 -15 -8 0 -15 -3 -15 -7 0 -5 -15 -9 -32 -10 -99 -6 -133 -21 -123
-54 3 -9 0 -21 -6 -25 -9 -5 -10 -2 -6 9 8 21 -2 22 -29 2 -12 -8 -24 -11 -28
-8 -3 3 -6 -1 -6 -10 0 -9 7 -17 16 -17 8 0 12 -5 9 -10 -4 -6 -10 -8 -15 -5
-10 6 -25 -13 -17 -21 3 -3 14 -1 25 5 13 7 22 7 30 -1 20 -20 14 -47 -13 -54
-17 -4 -25 -13 -25 -29 0 -18 -8 -25 -42 -33 -35 -9 -46 -8 -58 4 -11 11 -12
18 -3 32 10 16 7 20 -21 30 -18 7 -38 12 -44 12 -18 0 -15 -60 3 -66 8 -4 15
-10 15 -16 0 -5 12 -20 28 -33 l27 -24 -27 -1 c-15 0 -29 -4 -32 -9 -4 -5 -18
-5 -35 2 -22 8 -36 8 -53 0 -43 -21 -56 -22 -74 -4 -52 47 -94 64 -94 37 0 -9
-12 -13 -40 -12 -22 0 -40 5 -40 11 0 5 -4 3 -9 -5 -6 -8 -7 -18 -4 -22 2 -5
-1 -16 -8 -24 -10 -12 -10 -17 1 -27 8 -8 11 -8 7 -1 -4 7 3 14 16 18 17 5 28
-1 48 -24 30 -35 33 -36 58 -13 45 41 47 42 59 22 10 -15 9 -17 -3 -13 -10 4
-16 -3 -20 -23 -3 -15 -10 -36 -16 -45 -12 -23 -12 -24 7 -43 13 -12 13 -19 4
-30 -12 -15 -14 -14 63 -30 17 -3 23 -11 23 -27 -1 -13 6 -24 15 -26 13 -2 15
3 12 22 -4 18 0 26 17 31 16 5 20 12 16 29 -5 19 -1 22 26 21 24 0 32 -5 34
-23 2 -12 -1 -22 -7 -22 -6 0 -17 -7 -25 -15 -8 -8 -21 -12 -29 -8 -11 4 -13
1 -9 -11 3 -9 0 -23 -7 -32 -19 -23 -78 -45 -105 -38 -16 4 -24 2 -26 -7 0 -8
-2 -18 -2 -24 -3 -21 -18 -35 -37 -35 -10 0 -19 -6 -19 -14 0 -8 -9 -14 -19
-13 -11 0 -18 5 -15 9 3 4 -4 13 -16 20 -29 18 -25 38 8 38 17 0 37 10 50 23
25 27 28 37 8 37 -7 0 -16 9 -19 21 -4 15 0 23 14 26 20 5 24 20 13 47 -5 12
-10 14 -19 6 -9 -8 -15 -8 -20 0 -3 5 -19 10 -34 10 -15 0 -32 5 -38 11 -12
12 -103 41 -101 31 2 -4 -10 -30 -26 -59 -25 -45 -31 -51 -48 -42 -10 5 -23 7
-28 4 -19 -12 -31 6 -15 21 8 9 13 20 10 25 -4 5 1 9 10 9 10 0 29 12 43 28
15 15 38 33 52 40 14 7 36 19 49 27 l25 14 -30 7 c-47 11 -46 13 7 66 l51 51
-23 18 c-13 10 -32 19 -41 19 -12 0 -18 8 -18 25 0 18 -7 26 -26 31 -16 4 -23
12 -20 20 3 8 -1 14 -8 14 -20 0 -68 72 -55 85 7 7 13 5 20 -7 6 -10 16 -18
24 -18 7 0 19 -16 25 -36 11 -33 13 -34 33 -20 12 8 21 19 20 25 -2 6 5 11 15
11 27 1 55 27 50 47 -5 20 6 34 38 50 26 14 44 6 44 -19 0 -11 -5 -18 -12 -15
-15 5 -48 -10 -48 -22 0 -5 12 -6 26 -3 24 4 25 3 15 -17 -10 -17 -9 -21 3
-21 9 0 13 -6 10 -14 -9 -22 26 -28 51 -8 18 14 21 22 12 31 -8 8 -7 11 6 11
9 0 17 5 17 10 0 6 4 10 9 10 6 0 22 11 37 25 15 14 35 25 45 25 10 0 20 4 23
8 9 15 -43 7 -62 -9 -10 -8 -24 -13 -30 -11 -7 2 -12 0 -11 -5 4 -22 -3 -23
-22 -2 -11 13 -18 19 -15 13 3 -7 -1 -15 -10 -18 -23 -9 -23 -9 -22 25 1 16 4
26 7 21 3 -4 19 -8 36 -8 23 1 33 8 44 31 8 17 19 33 25 37 6 4 17 11 24 16
11 7 8 15 -12 35 -27 27 -34 47 -15 47 23 0 2 23 -23 26 -20 2 -25 -1 -21 -13
4 -11 0 -14 -18 -11 -19 2 -25 10 -27 36 -3 33 11 44 22 16 5 -14 9 -14 23 -3
9 8 24 13 34 11 10 -2 20 5 24 17 3 12 14 29 23 38 16 16 16 16 0 10 -10 -3
-20 -2 -23 3 -4 6 -17 10 -30 10 -13 0 -27 5 -31 11 -5 8 6 9 35 4 39 -6 56 5
30 21 -6 3 -9 14 -6 24 5 21 -16 17 -45 -8 -13 -10 -18 -11 -18 -3 0 7 -5 9
-10 6 -6 -4 -8 -11 -5 -16 4 -5 -3 -9 -14 -9 -24 0 -28 15 -6 24 8 3 15 17 15
33 -1 26 -1 27 -12 8 -12 -21 -41 -45 -68 -57 -10 -4 -7 -7 12 -7 22 -1 25 -4
20 -23 -3 -13 -16 -37 -29 -54 -12 -17 -23 -40 -23 -52 0 -12 -8 -23 -20 -27
-11 -3 -20 -13 -20 -21 0 -11 5 -12 18 -6 9 5 26 8 37 6 11 -1 23 2 26 8 5 8
14 9 28 2 20 -9 20 -9 -5 -61 -26 -59 -39 -66 -48 -28 -4 14 -11 25 -17 25 -6
0 -9 -6 -6 -14 3 -8 -5 -18 -19 -25 -17 -7 -24 -19 -24 -38 -1 -27 -20 -63
-34 -63 -4 0 -6 15 -5 33 2 18 -1 39 -6 47 -8 12 -11 7 -15 -20 -5 -30 -9 -35
-30 -32 -34 4 -41 21 -18 44 17 17 18 22 7 29 -11 7 -12 11 -1 17 7 5 10 16 6
25 -7 20 7 22 24 5 9 -9 12 -8 12 5 0 9 7 17 17 17 15 0 15 1 0 18 -25 27 -21
39 23 71 35 25 38 31 24 39 -15 8 -14 12 4 50 16 33 17 42 6 42 -33 0 -8 17
64 43 42 16 83 30 90 32 6 3 12 11 12 19 0 7 10 16 23 18 20 4 23 1 19 -24 -4
-23 -1 -27 12 -22 9 3 16 15 16 25 0 14 7 19 25 19 20 0 25 -6 31 -35 4 -25
11 -35 25 -35 11 0 19 7 19 15 0 8 -3 15 -8 15 -4 0 -13 10 -21 22 -7 13 -10
20 -6 16 9 -8 35 9 35 22 0 4 -24 23 -52 41 -62 39 -69 48 -62 74 4 16 3 17
-5 5 -9 -13 -11 -12 -11 5 -1 20 -1 20 -15 1 -19 -25 -19 -36 -1 -36 8 0 17
-4 20 -8 3 -5 -8 -7 -23 -4 -15 2 -28 10 -29 18 -1 8 -3 22 -3 32 -2 20 -29
62 -29 44 0 -6 -5 -12 -11 -12 -6 0 -8 9 -4 20 4 11 2 20 -4 20 -6 0 -11 -7
-11 -16 0 -8 -5 -12 -10 -9 -6 4 -8 15 -5 25 6 19 -12 42 -46 60 -10 6 -19 20
-19 31 0 13 -8 23 -21 26 -13 4 -19 13 -18 27 4 33 -11 83 -29 98 -11 9 -14
10 -8 1 4 -7 3 -13 -3 -13 -10 0 -19 8 -47 45 -15 19 -15 19 -11 -7 3 -23 0
-28 -17 -29 -11 0 -15 -3 -8 -6 6 -2 12 -16 12 -29 0 -19 -5 -24 -25 -24 -19
0 -25 5 -25 23 0 12 -3 33 -7 46 -5 18 -3 22 7 16 10 -6 12 -1 6 25 -7 39 -20
50 -50 42 -27 -7 -37 -22 -30 -46 4 -11 2 -16 -4 -12 -6 4 -14 0 -19 -7 -4 -8
-18 -20 -31 -26 -13 -7 -21 -18 -18 -26 4 -11 -21 -31 -29 -23 -10 11 -8 53 3
54 6 1 17 2 22 3 6 0 10 7 10 15 0 41 -70 115 -102 108 -21 -4 -22 -15 -6 -41
9 -15 16 -17 31 -9 22 11 22 11 31 -24 4 -17 2 -28 -4 -28 -5 0 -10 -9 -10
-20 0 -31 -35 -25 -49 8 -7 16 -11 35 -9 42 2 7 -2 14 -8 17 -14 5 -27 -39
-18 -61 5 -13 2 -13 -18 -4 -18 9 -23 19 -22 40 2 23 -2 28 -22 28 -14 0 -24
-6 -24 -14 0 -7 -9 -16 -20 -19 -15 -4 -20 0 -20 15 0 33 -19 58 -45 58 -14 0
-25 5 -25 10 0 6 -6 10 -12 9 -7 -1 -22 -1 -33 0 -16 1 -17 3 -5 11 26 16 0
63 -42 77 -21 7 -46 21 -56 31 -21 21 -87 45 -172 62 -58 11 -80 35 -80 86 0
13 -4 26 -10 29 -5 3 -10 15 -10 27 0 30 -27 5 -35 -33 -4 -16 -10 -27 -15
-24 -5 3 -8 -7 -7 -22 2 -30 -26 -44 -47 -23 -8 10 -5 11 17 8 31 -6 37 8 7
17 -11 3 -20 13 -20 21 0 8 -6 14 -14 14 -8 0 -23 11 -34 25 -11 14 -25 25
-30 25 -6 0 -14 4 -17 10 -3 5 0 7 9 4 8 -3 19 3 25 15 15 28 14 29 -16 33
-20 2 -29 9 -31 26 -2 15 -10 22 -25 21 -21 0 -21 -1 -2 -9 17 -7 14 -9 -14
-9 -20 -1 -39 -8 -47 -18 -13 -17 -13 -17 -14 0 0 13 -9 17 -36 17 -23 0 -41
6 -49 17 -8 11 -26 16 -58 16 -28 -1 -51 4 -58 13 -6 8 -25 14 -40 14 -22 0
-32 -6 -39 -25 -16 -41 -63 -24 -56 20 3 20 -25 55 -44 55 -6 0 -10 6 -9 13 4
35 -1 40 -21 22 -11 -10 -17 -21 -15 -25 16 -25 -9 -35 -89 -38 l-84 -3 -28
36 c-36 47 -60 56 -114 42 -34 -10 -44 -9 -47 1 -3 7 -22 12 -44 12 -24 0 -38
-4 -34 -10 3 -5 2 -10 -4 -10 -5 0 -14 8 -20 18 -7 12 -23 17 -53 18 -55 1
-118 14 -118 24 0 5 -15 13 -34 20 -19 6 -36 19 -39 30 -3 12 -17 21 -41 25
-21 4 -36 13 -36 21 0 17 -27 18 -33 2 -4 -10 -8 -9 -16 2 -9 13 -11 13 -11 1
0 -25 -24 6 -25 32 0 24 -28 34 -107 36 -59 1 -78 9 -78 31 0 15 -7 17 -37 14
-43 -4 -103 12 -103 28 0 7 -19 9 -55 4 -55 -6 -72 4 -38 22 12 7 2 12 -43 20
-32 5 -64 7 -71 5 -7 -3 -13 0 -13 6 0 6 -6 11 -14 11 -8 0 -17 14 -21 30 -9
40 -35 93 -51 103 -7 4 -11 17 -9 30 4 18 -5 28 -48 52 -29 16 -64 33 -79 38
-16 4 -28 11 -28 15 0 4 -14 16 -31 26 -24 14 -30 24 -26 42 2 13 1 21 -4 19
-4 -3 -14 1 -21 9 -8 7 -29 17 -46 21 -41 9 -40 21 3 42 34 16 34 18 34 74 -1
32 2 62 5 68 4 5 -5 18 -19 27 -23 15 -24 19 -12 31 15 15 124 57 186 73 21 5
42 5 53 -1 23 -12 48 25 54 81 4 47 23 87 54 115 13 11 33 37 46 57 15 23 35
40 52 44 40 10 97 59 116 98 9 20 21 38 26 41 6 3 10 14 10 23 0 9 21 37 48
62 37 35 47 52 48 79 1 18 7 37 14 41 7 4 9 13 6 19 -4 6 -4 10 1 9 12 -4 104
73 98 82 -2 4 7 18 22 31 14 13 34 38 44 54 11 17 19 23 19 15 0 -8 9 0 20 18
11 17 27 32 35 32 8 0 15 7 15 15 0 8 -9 15 -20 15 -20 0 -20 0 1 36 11 20 18
39 14 42 -3 3 -5 1 -5 -4z m3404 -3768 c13 -1 21 -8 20 -19 -1 -9 2 -14 7 -11
5 3 9 0 9 -5 0 -6 -4 -11 -10 -11 -5 0 -12 -11 -16 -25 -3 -14 -9 -23 -13 -20
-4 2 -19 -2 -34 -10 -21 -11 -26 -11 -31 0 -3 10 -18 13 -50 10 -27 -3 -46 -1
-46 5 0 6 -7 10 -15 10 -22 0 -19 9 13 39 26 25 116 53 136 43 5 -3 18 -5 30
-6z m-1674 -212 c0 -8 -4 -14 -10 -14 -5 0 -10 -7 -10 -16 0 -10 -6 -14 -15
-10 -8 3 -15 4 -15 2 0 -3 -3 -11 -6 -19 -4 -12 0 -14 14 -10 16 4 19 1 15
-21 -3 -14 -9 -26 -14 -26 -5 0 -9 -17 -9 -39 0 -30 4 -40 20 -44 32 -8 35
-35 7 -65 -13 -15 -28 -37 -32 -49 -8 -28 -25 -31 -18 -4 3 14 0 19 -14 18
-18 -2 -43 -38 -43 -63 0 -8 -2 -14 -4 -14 -2 0 -12 -3 -21 -6 -15 -6 -16 -2
-11 32 3 21 5 53 6 70 0 32 32 76 63 87 23 9 21 32 -5 57 -20 18 -21 23 -9 42
12 19 11 20 -11 15 -17 -4 -28 1 -40 18 -17 22 -17 24 5 37 68 43 157 56 157
22z m840 -23 c12 -1 11 -4 -4 -12 -14 -9 -20 -8 -27 2 -6 10 -9 8 -9 -8 0 -13
5 -23 11 -23 5 0 7 -4 4 -10 -3 -5 -16 -10 -29 -10 -21 0 -35 -18 -50 -62 -3
-11 -11 -15 -21 -12 -9 4 -15 1 -15 -9 0 -8 6 -17 13 -20 16 -6 -4 -42 -24
-42 -23 0 -32 -36 -14 -55 16 -17 8 -32 -20 -42 -5 -1 -9 -7 -7 -11 1 -4 -7
-17 -18 -29 -11 -12 -20 -25 -20 -29 0 -12 -73 -53 -95 -53 -25 0 -22 31 6 55
24 20 24 31 2 28 -34 -3 -41 1 -36 21 3 12 0 20 -7 20 -9 0 -11 -11 -7 -34 5
-31 3 -34 -31 -44 -52 -16 -81 11 -47 44 8 9 15 22 15 31 0 9 -6 13 -15 9 -8
-3 -15 -2 -15 2 0 4 -29 7 -65 8 -64 1 -65 0 -65 -26 0 -17 -14 -42 -41 -71
-33 -35 -39 -49 -35 -71 3 -17 0 -30 -8 -35 -7 -4 -16 -17 -20 -28 -7 -19 -8
-19 -18 -2 -7 13 -6 27 2 47 7 16 9 34 5 39 -3 6 -1 11 4 11 28 0 6 18 -37 29
l-48 14 1 53 c0 35 6 59 17 70 18 18 38 11 38 -12 0 -12 9 -14 48 -9 26 4 52
13 58 21 6 8 20 14 32 14 11 0 22 7 26 15 3 8 10 15 16 15 6 0 8 -5 5 -11 -9
-13 25 -38 42 -32 9 4 10 10 2 24 -13 25 -5 36 31 44 42 9 44 20 10 48 -28 24
-41 57 -21 57 4 0 20 18 35 41 25 38 30 40 69 37 29 -2 42 -8 43 -18 3 -41 4
-43 18 -31 11 9 15 8 20 -4 3 -9 2 -14 -2 -11 -5 3 -9 -9 -9 -26 0 -29 1 -30
38 -25 25 3 42 0 49 -9 20 -23 2 -33 -51 -27 l-50 6 7 -27 c5 -20 1 -31 -15
-45 -11 -10 -21 -21 -21 -25 0 -14 44 7 74 35 17 16 38 29 47 29 39 0 102 97
71 108 -7 2 -12 7 -12 11 0 11 47 31 71 31 15 0 19 5 14 19 -5 18 11 20 85 12z
m-875 -371 c-5 -14 -2 -20 9 -20 9 0 16 7 16 15 0 18 5 18 31 5 13 -7 19 -21
19 -43 0 -25 -2 -29 -11 -17 -9 12 -10 12 -5 -3 3 -10 6 -23 6 -28 0 -5 8 -9
18 -9 15 -1 15 -2 -2 -15 -11 -8 -27 -13 -36 -10 -11 4 -21 -3 -28 -20 -6 -14
-16 -25 -22 -25 -5 0 -10 -7 -10 -15 0 -9 -6 -12 -15 -9 -8 4 -15 1 -15 -5 0
-6 -9 -11 -21 -11 -20 0 -20 -4 -15 -70 3 -40 1 -70 -4 -70 -18 0 -31 -39 -20
-59 7 -14 7 -28 0 -47 -9 -22 -7 -29 10 -41 11 -8 20 -20 20 -26 0 -7 10 -17
22 -22 12 -6 30 -24 41 -42 17 -30 17 -32 -1 -62 -17 -29 -19 -30 -37 -13 -17
16 -17 16 -10 -3 17 -45 17 -55 0 -61 -9 -4 -21 -16 -25 -28 -7 -16 -9 -17 -9
-4 -1 9 4 20 9 23 6 3 10 11 10 16 0 6 -4 8 -9 5 -5 -4 -12 0 -14 6 -3 8 -6 6
-6 -4 -1 -17 -21 -26 -21 -10 0 4 -15 12 -32 17 -19 6 -42 24 -54 42 -12 18
-25 29 -28 25 -12 -11 -25 21 -22 56 2 30 -1 35 -33 48 -20 9 -44 16 -53 17
-22 2 -24 37 -3 76 8 16 11 32 7 35 -4 4 4 16 18 26 21 16 22 20 10 35 -10 12
-23 15 -46 12 -47 -8 -52 6 -8 19 21 6 43 19 48 30 6 10 12 21 13 23 2 2 11
-4 22 -13 11 -10 22 -13 25 -8 7 12 -36 42 -60 42 -13 0 -14 3 -4 15 14 16 65
21 55 5 -4 -6 1 -7 11 -3 13 5 15 2 9 -15 -10 -32 2 -27 25 11 25 41 25 41 -5
55 -30 14 -33 46 -5 69 11 10 20 21 20 24 0 4 -9 5 -20 2 -13 -4 -20 0 -20 10
0 20 50 29 67 11 18 -18 21 -18 41 2 11 12 17 13 20 5 6 -18 32 7 32 30 0 12
10 21 28 25 15 3 32 7 37 9 27 9 36 4 30 -15z m806 10 c5 0 9 -10 9 -22 0 -17
-3 -19 -12 -10 -15 15 -28 16 -28 2 0 -5 6 -10 14 -10 8 0 25 -17 37 -37 13
-21 31 -47 41 -57 23 -26 7 -46 -19 -24 -22 19 -49 29 -57 21 -3 -3 2 -11 10
-18 14 -9 14 -16 5 -34 -7 -12 -16 -19 -21 -16 -5 3 -11 -3 -15 -14 -3 -10
-13 -22 -23 -25 -38 -15 -62 -31 -58 -41 2 -5 12 -9 22 -7 10 1 37 5 58 9 27
4 37 3 32 -5 -3 -6 -2 -13 4 -17 16 -10 12 -82 -5 -89 -8 -3 -15 -12 -15 -21
0 -8 -6 -15 -12 -16 -10 0 -10 -2 0 -6 6 -2 12 -11 12 -18 0 -16 -33 -30 -38
-16 -2 6 -12 11 -23 11 -13 0 -19 7 -19 22 0 21 -1 21 -17 6 -12 -13 -13 -20
-5 -30 8 -10 4 -13 -19 -13 -18 0 -34 8 -44 23 -9 12 -21 20 -26 17 -5 -4 -9
3 -9 14 0 14 6 21 20 21 19 0 40 27 40 53 0 7 -11 19 -25 25 -23 10 -25 9 -31
-16 -20 -89 -25 -101 -39 -96 -8 4 -15 11 -15 17 0 6 -3 8 -6 5 -3 -4 0 -16 6
-28 14 -26 -4 -80 -26 -80 -20 0 -22 -49 -2 -61 7 -4 7 -9 0 -13 -6 -4 -18 6
-26 21 l-15 28 -9 -25 c-8 -20 -6 -29 9 -46 20 -22 26 -54 9 -54 -5 0 -10 -6
-10 -12 0 -7 -14 -21 -30 -30 -22 -13 -30 -14 -30 -4 0 17 -28 16 -34 -1 -3
-7 1 -13 9 -13 8 0 15 -8 16 -17 0 -10 3 -13 5 -6 3 7 12 9 21 6 11 -4 14 -2
9 5 -4 7 1 10 14 9 16 -1 17 -4 8 -13 -16 -15 -83 -30 -74 -16 3 5 -3 17 -14
27 -16 14 -23 15 -34 6 -22 -19 -56 -4 -56 24 0 13 -3 30 -6 39 -3 9 4 25 20
39 14 13 26 31 26 40 0 25 -11 47 -24 47 -7 0 -21 6 -31 14 -19 13 -17 15 20
32 22 10 41 19 43 20 2 1 -4 13 -12 26 -9 14 -13 28 -9 32 4 4 -1 4 -11 0 -16
-6 -17 -4 -11 17 4 13 11 26 15 29 11 8 -7 50 -25 56 -25 10 -19 37 7 28 21
-6 21 -6 5 10 -9 10 -17 26 -17 37 0 27 -27 24 -57 -8 -15 -16 -24 -21 -20
-11 8 24 -4 31 -19 10 -13 -16 -13 -16 -14 1 0 9 -4 17 -10 17 -5 0 -7 -13 -4
-30 4 -19 1 -34 -9 -45 -20 -20 -44 -21 -28 -1 9 10 8 16 -4 26 -13 10 -13 15
-3 21 7 4 16 3 20 -4 11 -18 21 0 10 19 -13 24 30 59 82 67 22 3 51 17 65 29
41 36 64 46 104 43 25 -1 37 2 37 11 0 8 15 17 33 22 38 10 70 -5 64 -29 -3
-9 4 -24 14 -33 18 -15 19 -15 14 6 -3 13 -1 29 4 37 10 16 31 6 31 -15 0 -9
-5 -12 -11 -8 -7 4 -9 0 -5 -13 10 -31 -22 -52 -61 -41 -18 5 -33 15 -33 23 0
17 -43 32 -48 16 -5 -16 -22 -14 -22 4 0 8 -4 15 -9 15 -12 0 -8 -20 9 -47 8
-13 23 -23 33 -23 10 0 20 -7 23 -15 4 -8 10 -12 15 -9 5 3 7 -11 4 -32 -2
-21 -10 -41 -16 -45 -7 -4 -9 -14 -6 -22 9 -23 -17 -39 -50 -31 -15 4 -31 12
-35 18 -5 7 -14 3 -27 -11 -21 -22 -18 -35 5 -26 16 6 19 -13 4 -22 -16 -10
-12 -32 5 -32 9 0 14 5 12 12 -3 6 4 11 14 11 13 0 22 -11 29 -36 13 -47 13
-57 -2 -38 -12 15 -16 14 -47 -12 -29 -25 -32 -31 -21 -45 8 -10 9 -15 1 -15
-6 0 -11 -6 -11 -13 0 -10 12 -11 47 -7 47 5 48 6 56 47 6 33 14 44 32 49 18
5 24 14 27 46 2 27 -1 42 -9 45 -9 4 -5 11 11 24 31 24 39 24 26 -1 -13 -24
-7 -26 14 -4 22 22 20 41 -6 50 -19 6 -19 7 -5 16 10 5 17 16 17 25 0 12 8 14
33 10 39 -6 68 8 61 28 -4 9 0 15 10 15 14 0 20 -12 17 -32 0 -5 4 -8 9 -8 12
0 13 23 3 34 -4 4 -8 14 -8 23 0 39 -62 42 -72 3 -6 -24 -19 -26 -27 -4 -6 16
19 61 26 47 3 -4 3 -2 2 5 -8 30 8 42 50 37 42 -5 93 -46 81 -66 -4 -5 -1 -9
4 -9 6 0 11 16 11 36 0 21 -4 33 -10 29 -21 -13 -31 7 -11 22 12 8 21 25 21
38 0 29 27 58 47 51 8 -3 19 -6 24 -6z m105 -507 c1 -23 -2 -30 -12 -26 -8 3
-14 0 -14 -6 0 -6 11 -11 25 -11 16 0 23 4 19 14 -3 7 2 16 11 20 10 4 15 12
11 21 -4 13 -1 12 18 -2 18 -13 21 -21 14 -31 -16 -18 -4 -24 26 -13 17 7 26
7 26 1 0 -16 -43 -29 -75 -23 -25 5 -27 4 -21 -13 5 -10 10 -37 12 -59 2 -22
1 -32 -2 -22 -14 44 -88 1 -100 -59 -7 -38 21 -69 40 -42 6 8 26 19 44 22 17
4 32 13 32 21 0 7 7 18 15 25 11 9 12 16 5 25 -8 9 -6 17 5 29 19 18 18 18 39
10 9 -3 16 -14 16 -23 0 -14 2 -14 10 -1 8 12 10 12 16 -3 3 -9 1 -24 -6 -32
-6 -8 -9 -19 -5 -24 3 -6 1 -20 -5 -31 -6 -11 -7 -20 -1 -20 19 0 19 -30 -1
-55 -16 -21 -19 -35 -14 -66 4 -24 2 -39 -4 -39 -5 0 -10 7 -10 15 0 22 -9 19
-42 -17 l-30 -32 -37 21 c-22 13 -37 30 -39 44 -2 13 -13 34 -23 48 -10 13
-19 29 -19 35 0 6 -10 29 -21 51 -17 31 -19 43 -10 57 14 23 14 31 -1 26 -24
-8 -54 37 -54 83 1 48 11 62 37 49 25 -14 81 10 75 32 -3 13 2 18 16 18 12 0
16 4 12 11 -4 7 -1 10 7 7 7 -2 14 -18 15 -35z m-1983 -204 c-3 -11 -12 -23
-19 -26 -10 -4 -11 -10 -3 -25 6 -12 7 -18 1 -14 -5 3 -12 -3 -15 -13 -3 -14
1 -18 22 -17 19 1 25 -4 23 -17 -2 -11 4 -17 18 -17 13 0 20 -7 20 -20 0 -11
-4 -20 -10 -20 -5 0 -10 -5 -10 -11 0 -5 5 -7 10 -4 7 4 8 -3 4 -22 -8 -34 -3
-29 -36 -37 -35 -8 -38 14 -7 43 17 16 19 23 10 40 -15 27 -38 27 -46 1 -3
-11 -11 -20 -17 -20 -5 0 -7 7 -4 16 4 10 -5 25 -24 42 -37 32 -38 49 -5 64
14 6 25 17 25 24 0 7 12 17 28 22 22 9 23 11 7 12 l-20 1 20 9 c30 13 34 12
28 -11z m-344 -5 c2 -2 -2 -10 -9 -19 -10 -12 -16 -13 -26 -4 -11 9 -14 6 -14
-15 0 -14 -4 -26 -10 -26 -5 0 -19 -20 -30 -45 -21 -45 -35 -56 -42 -33 -4 10
-8 9 -20 -2 -8 -8 -13 -20 -11 -25 1 -6 -1 -16 -6 -24 -8 -12 -12 -12 -25 -2
-9 8 -16 9 -16 4 0 -5 -10 -9 -22 -9 -20 1 -22 -3 -20 -28 l4 -28 -29 31 c-55
60 -73 84 -73 98 0 7 4 13 9 13 5 0 11 9 14 20 4 14 13 20 34 20 24 -1 25 -2
11 -11 -10 -5 -18 -20 -18 -31 0 -17 3 -19 12 -10 7 7 23 12 36 12 19 0 22 -4
17 -20 -9 -29 19 -26 38 4 10 14 30 26 52 30 31 6 34 9 25 26 -5 10 -10 26
-10 36 0 13 3 14 14 5 10 -8 18 -4 36 20 19 24 29 29 49 24 14 -4 28 -8 30
-11z m1685 -30 c27 -10 19 -41 -13 -52 -24 -9 -33 -7 -52 11 -21 20 -22 20
-15 2 4 -11 10 -35 13 -54 5 -29 4 -33 -10 -28 -10 4 -18 2 -18 -3 -1 -6 -2
-15 -3 -22 -2 -22 -25 -19 -42 6 -19 30 -39 34 -31 7 3 -14 0 -17 -13 -14 -15
4 -18 -1 -16 -36 2 -40 -9 -55 -20 -27 -3 8 -12 12 -19 10 -7 -3 -16 4 -20 15
-3 12 -11 21 -16 21 -16 0 -10 30 9 36 9 4 32 13 51 21 29 13 32 19 28 42 -5
24 -2 29 29 40 19 7 55 11 81 10 30 -2 48 1 51 9 4 14 5 14 26 6z"/>
<path d="M12320 5421 c0 -6 -12 -16 -27 -23 -36 -18 -39 -34 -6 -33 20 0 27
-4 24 -15 -10 -40 -9 -58 4 -54 14 6 28 -22 19 -37 -3 -5 -12 -9 -20 -9 -8 0
-14 -6 -14 -14 0 -14 -27 -31 -44 -27 -5 1 -4 -5 4 -13 14 -18 40 -21 40 -5 0
6 8 8 18 6 60 -17 70 -17 75 2 3 12 14 18 37 19 50 1 55 14 25 60 -21 32 -25
47 -20 76 10 50 1 70 -25 56 -15 -8 -27 -7 -49 5 -35 18 -41 18 -41 6z"/>
<path d="M10844 5373 c-20 -4 -29 -24 -36 -80 -1 -7 -5 -13 -9 -13 -4 0 -18
-14 -30 -32 -17 -24 -19 -30 -7 -25 23 8 34 -39 13 -59 -8 -9 -15 -26 -15 -40
0 -18 5 -24 23 -24 17 0 19 -2 7 -10 -8 -5 -12 -12 -8 -15 11 -11 48 5 48 21
0 9 10 14 27 14 14 0 23 3 20 6 -3 4 -1 16 4 27 10 17 9 19 -8 15 -10 -3 -24
1 -30 8 -17 17 5 63 34 70 25 7 80 81 68 92 -4 4 -10 1 -12 -5 -3 -8 -14 -11
-26 -8 -28 6 -49 -11 -67 -54 -8 -19 -16 -29 -18 -22 -2 6 1 17 6 24 5 7 13
27 17 45 4 21 12 32 19 29 9 -4 11 2 8 19 -2 13 -5 23 -6 23 0 -1 -11 -4 -22
-6z"/>
<path d="M12650 5216 c0 -8 -12 -17 -27 -21 -15 -3 -23 -9 -17 -13 5 -4 17
-19 26 -34 15 -22 15 -28 4 -38 -11 -8 -15 -8 -18 2 -7 19 -38 -9 -38 -33 0
-23 -13 -24 -30 -4 -10 12 -9 18 8 32 22 19 39 62 25 64 -44 6 -72 5 -67 -2 3
-5 15 -9 27 -10 16 0 11 -6 -21 -21 -39 -17 -43 -22 -37 -45 5 -22 3 -25 -13
-21 -26 7 -52 -9 -52 -32 0 -10 -9 -21 -19 -25 -22 -7 -35 -65 -15 -65 7 0 33
11 58 24 38 20 47 22 57 10 9 -11 8 -15 -5 -20 -10 -4 -15 -13 -12 -21 3 -8 1
-11 -4 -8 -6 4 -28 -7 -49 -24 -21 -17 -49 -32 -62 -32 -18 -1 -20 -2 -6 -6
19 -5 17 -30 -2 -25 -7 1 -24 4 -39 5 -15 2 -34 7 -42 12 -8 5 -21 10 -29 10
-8 0 -16 6 -18 13 -3 7 1 10 11 6 10 -4 18 0 22 10 9 24 1 28 -29 17 -17 -7
-28 -7 -32 -1 -4 6 3 10 13 10 11 0 25 7 32 15 9 11 15 12 20 5 9 -14 40 -2
40 17 0 8 -4 11 -10 8 -5 -3 -10 -2 -10 3 0 17 45 50 78 57 18 4 32 13 32 21
0 8 9 22 20 31 24 21 26 33 5 33 -8 0 -32 -18 -55 -41 -29 -29 -42 -37 -45
-27 -9 24 13 71 30 64 17 -6 65 13 65 26 0 4 -6 8 -14 8 -8 0 -17 6 -19 13 -4
9 -6 8 -6 -2 -1 -11 -4 -11 -16 -1 -9 7 -18 10 -22 6 -3 -3 -1 -6 5 -6 6 0 -5
-17 -24 -37 -31 -34 -36 -36 -45 -20 -13 23 -29 22 -29 -2 0 -10 -7 -22 -15
-25 -9 -3 -15 -11 -13 -18 1 -7 -16 -31 -39 -53 -22 -22 -43 -49 -45 -60 -2
-14 -11 -20 -31 -20 -19 -1 -26 3 -22 13 3 7 5 16 5 18 0 2 9 4 20 4 23 0 24
5 9 49 -11 30 -32 41 -44 21 -3 -5 1 -10 10 -10 9 0 13 -5 10 -11 -4 -6 -13
-8 -21 -5 -10 4 -14 -3 -14 -22 0 -16 -5 -33 -12 -40 -9 -9 -9 -15 -1 -23 9
-9 7 -20 -6 -43 -31 -57 -46 -76 -58 -76 -7 0 -13 -3 -13 -7 0 -5 -9 -19 -20
-33 l-20 -25 0 23 c0 12 6 22 13 22 14 0 17 43 5 56 -5 4 -8 22 -8 39 0 17 -3
35 -7 38 -3 4 -7 20 -7 37 -1 23 3 30 18 30 23 0 13 11 -25 27 -23 10 -25 9
-25 -10 1 -15 -8 -24 -29 -32 -35 -11 -68 -38 -44 -35 28 4 39 0 39 -15 0 -8
-9 -15 -20 -15 -20 0 -28 -24 -10 -35 9 -6 -7 -55 -19 -55 -12 1 -41 28 -41
38 0 6 8 17 18 24 21 15 36 48 22 48 -13 0 -50 -37 -50 -49 0 -5 -6 -12 -12
-14 -10 -4 -10 -8 1 -15 7 -5 10 -15 7 -21 -4 -6 -1 -11 6 -11 8 0 6 -5 -5
-11 -14 -8 -16 -14 -6 -25 6 -8 18 -14 26 -14 9 0 13 -8 11 -22 -2 -13 -7 -22
-13 -21 -18 2 -45 -17 -45 -32 0 -8 7 -15 16 -15 10 0 14 -7 12 -22 -2 -17 -9
-22 -24 -20 -12 2 -24 -4 -27 -13 -4 -9 -1 -15 9 -15 12 0 10 -5 -7 -20 -13
-10 -19 -19 -14 -20 6 0 16 5 23 12 8 8 12 8 12 1 0 -6 9 -13 20 -16 11 -3 20
-1 20 4 0 5 5 9 12 9 9 0 9 -3 0 -12 -7 -7 -12 -18 -12 -25 0 -8 -6 -20 -12
-27 -11 -12 -16 -12 -30 1 -11 10 -18 12 -18 5 0 -7 4 -12 9 -12 16 0 18 -33
5 -73 -7 -20 -11 -45 -7 -55 5 -14 2 -13 -11 3 l-18 20 8 -20 c11 -30 9 -55
-9 -112 -13 -45 -14 -53 -2 -53 8 0 17 11 21 25 3 13 13 30 22 37 13 11 14 10
5 -7 -11 -22 -11 -47 1 -84 7 -20 5 -23 -8 -18 -9 4 -16 2 -16 -3 0 -6 5 -10
10 -10 6 0 5 -8 -2 -20 -14 -22 -48 -26 -66 -8 -9 9 -12 8 -12 -5 0 -9 5 -17
10 -17 6 0 15 -12 21 -27 8 -22 6 -32 -11 -54 -24 -34 -27 -71 -5 -63 8 4 15
1 15 -5 0 -6 -10 -11 -22 -11 -22 -1 -22 -1 -4 -15 16 -12 22 -12 42 2 14 9
28 13 31 9 12 -11 -12 -41 -36 -44 -22 -4 -25 -10 -15 -37 5 -13 9 -14 15 -4
4 8 12 10 16 5 4 -4 0 -13 -10 -20 -23 -18 -22 -46 3 -46 23 0 27 -25 5 -34
-8 -3 -15 -13 -15 -23 0 -13 3 -14 12 -5 20 20 24 14 20 -28 -3 -27 -11 -44
-23 -51 -25 -13 -24 -39 1 -39 11 0 20 -4 20 -10 0 -5 -7 -10 -15 -10 -17 0
-20 -16 -5 -25 6 -3 10 -13 10 -21 0 -9 -5 -12 -11 -8 -8 4 -9 0 -4 -15 4 -12
2 -21 -4 -21 -6 0 -11 -5 -11 -11 0 -5 5 -7 11 -3 8 4 9 -3 4 -25 -4 -21 -3
-31 5 -31 8 0 11 -12 8 -35 -3 -24 0 -35 9 -35 7 0 13 -11 13 -24 0 -14 5 -28
10 -31 16 -10 25 25 12 46 -15 23 -15 56 -2 64 6 4 10 -7 10 -25 0 -29 2 -30
22 -19 12 6 33 22 47 35 l24 23 -17 53 c-15 49 -15 57 -2 83 11 21 22 28 46
29 27 1 30 -2 25 -21 -6 -27 2 -29 22 -5 8 9 12 11 8 5 -9 -18 10 -16 25 2 9
11 9 15 1 15 -7 0 -9 10 -5 28 4 20 3 23 -5 13 -8 -12 -11 -10 -16 12 -6 22
-10 25 -21 16 -8 -7 -17 -9 -20 -6 -3 3 -18 2 -33 -3 -38 -11 -60 2 -42 24 14
17 8 21 -33 16 -15 -1 -17 2 -11 17 5 10 9 30 9 45 1 19 7 29 23 33 11 2 29 8
38 11 12 5 16 2 13 -12 -2 -13 3 -19 17 -20 38 -2 45 -4 45 -14 0 -5 -7 -7
-15 -4 -9 4 -16 -3 -21 -20 -3 -14 -10 -24 -14 -21 -9 5 -23 -25 -16 -33 3 -2
13 -1 23 4 10 4 27 8 38 8 11 1 20 8 20 16 0 8 7 14 16 12 8 -1 25 7 36 18 12
10 33 22 46 25 14 4 33 15 43 26 18 20 6 27 -13 8 -6 -6 -16 -8 -22 -5 -14 9
-14 53 -1 61 13 8 59 -26 60 -45 0 -9 9 -2 20 15 11 17 16 31 10 33 -5 2 -5
13 1 29 5 14 8 28 5 30 -6 6 -56 -8 -56 -17 0 -4 -9 -10 -19 -13 -13 -3 -21 2
-25 16 -6 26 2 40 20 33 8 -3 14 -2 14 3 0 5 11 16 25 25 23 15 27 15 40 2 8
-8 15 -30 15 -48 l1 -33 19 24 c20 23 20 23 20 2 0 -31 -26 -78 -50 -91 -11
-6 -20 -17 -20 -25 0 -20 19 -19 26 0 8 19 28 19 44 0 10 -12 16 -12 34 -3 11
7 30 12 40 12 23 1 29 15 16 36 -7 12 -12 12 -28 -4 -26 -22 -41 -2 -18 23 20
22 21 35 1 27 -8 -3 -15 -3 -15 0 0 9 24 30 44 37 15 6 17 14 13 42 -5 28 -2
35 10 35 9 0 26 8 37 17 12 10 15 11 9 3 -15 -17 -17 -34 -3 -25 19 12 10 -6
-15 -29 -33 -31 -32 -37 5 -23 26 10 30 16 30 48 0 28 6 41 26 54 14 9 32 14
39 11 8 -3 23 6 34 20 11 14 25 23 31 19 14 -9 50 23 50 44 0 12 3 12 12 3 9
-9 3 -21 -27 -52 -35 -36 -37 -40 -17 -40 12 0 32 11 44 25 20 23 66 37 53 16
-3 -5 -1 -12 5 -16 5 -3 10 -1 10 4 0 22 20 10 47 -29 34 -48 50 -56 74 -34
18 16 20 16 43 -9 14 -15 28 -27 32 -27 4 0 -3 11 -15 24 -12 13 -22 32 -20
42 3 24 -10 54 -23 54 -5 0 -7 -4 -3 -9 7 -12 -7 -21 -39 -23 -14 -1 -26 -7
-26 -13 0 -5 -5 -2 -11 9 -6 10 -20 27 -30 37 -11 11 -19 25 -19 33 0 7 32 37
72 66 71 52 71 52 49 69 -12 9 -32 30 -45 45 l-22 29 -32 -62 c-18 -35 -32
-69 -32 -77 0 -13 -44 -20 -87 -15 -6 1 -29 -2 -51 -7 -38 -9 -39 -8 -51 24
-12 33 -31 46 -31 22 0 -7 -11 9 -24 37 -26 52 -22 80 12 92 34 12 42 24 31
44 -5 11 -14 17 -20 13 -5 -3 -16 0 -24 6 -11 9 -15 9 -15 1 0 -6 -9 -11 -20
-11 -26 0 -26 26 1 41 16 8 23 8 29 -1 5 -8 9 -7 13 5 4 9 3 13 -3 10 -6 -3
-10 -2 -10 4 0 5 5 13 11 16 6 4 8 13 5 20 -2 7 4 15 14 18 24 6 52 50 44 71
-3 9 -10 13 -16 10 -5 -3 -5 -11 2 -19 8 -9 8 -15 0 -20 -5 -3 -13 2 -17 12
-3 10 -8 21 -10 26 -2 4 7 11 21 17 14 5 26 14 26 20 0 5 7 10 16 10 8 0 12 4
9 10 -3 5 -1 18 4 27 8 13 10 14 11 4 0 -12 3 -12 12 -3 7 7 22 12 35 12 18 0
23 -6 23 -24 0 -19 -4 -22 -23 -19 -15 3 -32 -4 -50 -21 -39 -36 -35 -56 7
-40 9 3 16 16 16 27 0 16 3 18 12 9 32 -32 81 2 105 74 9 27 18 43 21 35 3 -8
8 -5 16 10 14 29 63 43 94 27 27 -14 28 -24 1 -67 -16 -26 -23 -31 -29 -20 -5
7 -12 10 -16 6 -4 -4 -13 -2 -20 4 -17 14 -243 -205 -241 -232 2 -27 22 -23
35 6 22 49 86 52 103 6 6 -14 18 -35 28 -46 9 -11 18 -33 20 -50 4 -38 5 -39
30 -25 13 6 21 21 21 35 0 17 4 23 14 19 17 -6 29 35 15 52 -12 15 43 71 79
80 20 6 22 12 22 85 0 48 -4 79 -10 79 -7 0 -7 6 0 19 13 26 13 31 -3 26 -7
-3 -17 10 -25 36 -11 35 -11 45 2 64 10 15 13 35 10 57 -4 24 -1 38 10 47 9 7
16 28 16 45 -1 29 -1 30 -15 12 -8 -11 -15 -31 -15 -45 0 -19 -3 -22 -11 -14
-9 9 -17 9 -32 0 -31 -18 -52 -41 -52 -56 0 -8 -6 -16 -14 -19 -10 -3 -12 0
-8 12 4 10 7 30 7 45 0 21 10 35 45 60 25 18 45 39 45 47 0 8 -4 13 -10 9 -14
-9 -42 40 -40 72 3 42 1 46 -15 33 -11 -9 -12 -17 -5 -30 14 -26 13 -32 -14
-63 -14 -16 -27 -34 -30 -40 -3 -8 -8 -7 -15 3 -15 21 -14 30 4 24 9 -4 18 1
21 10 8 21 -4 35 -15 18 -6 -10 -10 -10 -20 1 -9 12 -6 16 18 20 20 4 29 11
27 24 -2 9 11 30 27 46 l29 28 -20 20 c-25 22 -42 25 -42 5z"/>
<path d="M11076 5125 c3 -7 -9 -26 -25 -43 -17 -17 -31 -35 -31 -41 0 -11 35
-9 78 4 12 4 22 3 23 -1 1 -16 7 -39 15 -58 7 -18 6 -18 -18 -2 -24 16 -38 13
-38 -7 0 -6 3 -8 6 -4 3 3 17 2 30 -4 19 -7 26 -5 30 6 4 8 13 15 21 15 8 0
11 -4 8 -10 -3 -5 -2 -10 3 -10 18 0 5 -38 -21 -62 -16 -15 -27 -35 -26 -49 1
-16 3 -18 6 -7 2 9 19 22 38 28 46 15 65 38 44 54 -17 12 -15 29 10 57 19 23
46 25 37 3 -3 -9 -6 -18 -6 -20 0 -3 -4 -2 -10 1 -11 7 -13 -6 -4 -29 8 -22
51 0 62 33 l9 26 27 -30 c15 -16 24 -21 20 -12 -4 13 -1 17 15 17 12 0 21 4
21 9 0 5 3 17 7 27 5 14 2 16 -21 10 -15 -4 -46 -1 -69 5 -23 6 -54 11 -69 11
-40 -1 -37 36 5 67 17 13 23 20 12 16 -11 -4 -28 -10 -38 -12 -9 -3 -20 -16
-23 -29 -8 -32 -15 -30 -40 13 -17 30 -27 36 -57 38 -25 2 -34 -1 -31 -10z"/>
<path d="M11053 4959 c1 -6 -18 -17 -42 -23 l-45 -11 -13 -70 c-8 -45 -9 -73
-3 -79 7 -7 10 -6 10 2 0 7 5 12 10 12 6 0 10 -13 10 -30 0 -28 8 -35 38 -31
6 1 12 -7 12 -18 0 -11 4 -22 9 -25 12 -8 22 20 15 39 -4 8 -1 15 5 15 6 0 11
-8 11 -17 0 -15 2 -15 21 3 23 23 41 88 33 119 -3 11 -6 34 -8 50 -2 20 -9 29
-19 27 -9 -1 -17 8 -21 23 -6 24 -29 37 -23 14z"/>
<path d="M10523 4923 c-7 -2 -13 -11 -13 -19 0 -8 -6 -14 -12 -15 -7 -1 -2 -4
12 -8 l25 -7 -27 -27 c-14 -14 -28 -34 -31 -44 -4 -14 -5 -13 -6 5 -1 26 -22
29 -55 6 -28 -18 -41 -57 -27 -82 6 -12 4 -28 -9 -54 -10 -20 -15 -39 -12 -42
2 -3 -1 -13 -9 -23 -12 -14 -12 -16 0 -8 11 6 13 4 8 -9 -4 -10 -7 -20 -7 -22
0 -3 -4 -2 -10 1 -5 3 -10 1 -10 -6 0 -7 9 -9 23 -6 20 6 20 5 4 -7 -13 -10
-15 -19 -9 -36 11 -31 19 -17 26 49 6 50 27 91 48 91 4 0 8 -7 8 -15 0 -8 -6
-12 -12 -10 -9 4 -13 -5 -14 -22 0 -16 -4 -36 -8 -45 -14 -31 31 -9 70 34 29
32 35 35 29 17 -7 -21 -6 -22 9 -10 24 20 19 -3 -6 -25 -14 -12 -19 -14 -13
-4 4 8 -2 5 -14 -7 -11 -12 -21 -29 -21 -38 0 -8 -3 -15 -8 -15 -4 0 -12 -16
-18 -35 -9 -29 -9 -35 4 -35 9 0 24 8 34 17 17 15 21 15 30 3 8 -12 9 -11 4 3
-3 10 -6 24 -6 30 0 7 -4 6 -10 -3 -5 -8 -10 -10 -10 -5 0 14 37 75 63 103 11
12 15 22 9 22 -17 0 -15 20 6 60 11 19 17 41 14 49 -3 9 0 11 8 6 9 -6 10 -1
4 16 -10 33 -6 82 9 91 7 4 27 8 45 8 27 0 32 3 32 25 0 14 -2 25 -4 25 -15 0
-66 -24 -66 -31 0 -15 -47 -10 -60 6 -7 8 -10 24 -7 35 3 11 4 20 4 19 -1 0
-8 -3 -14 -6z"/>
<path d="M10726 4724 c-4 -16 -12 -34 -18 -41 -16 -19 -36 -5 -30 23 5 26 -12
34 -22 9 -3 -8 -13 -15 -22 -15 -12 0 -14 -3 -5 -13 8 -10 7 -17 -2 -26 -9
-11 -9 -14 1 -18 6 -3 12 -11 12 -18 0 -21 19 -28 36 -14 14 11 15 10 12 -11
-3 -25 -6 -25 -51 -13 -13 4 -16 1 -11 -11 4 -10 13 -15 21 -12 14 6 53 -26
53 -44 0 -6 9 -6 23 -1 15 6 21 15 19 30 -2 12 2 29 8 37 16 19 3 18 -16 -1
-19 -18 -37 -20 -32 -2 6 16 69 46 85 40 16 -6 17 15 1 50 -9 17 -21 27 -35
27 -13 0 -23 5 -23 11 0 5 5 7 10 4 12 -8 13 5 1 23 -6 10 -10 6 -15 -14z"/>
<path d="M9533 4609 c-12 -4 -24 -18 -28 -31 -4 -13 -12 -26 -17 -29 -12 -8
-21 -102 -9 -94 14 8 24 -34 13 -48 -8 -9 -4 -12 13 -13 14 -1 24 1 23 5 -1 3
6 23 15 43 19 42 22 62 8 53 -5 -3 -12 -1 -16 4 -3 5 2 14 11 19 9 5 17 22 17
37 0 18 2 23 8 14 6 -11 11 -11 20 -2 6 6 18 9 25 6 17 -6 18 13 2 24 -7 4
-21 6 -32 4 -10 -1 -22 2 -25 7 -3 5 -15 6 -28 1z"/>
<path d="M11611 4553 c0 -7 -8 -13 -16 -13 -8 0 -15 -8 -15 -18 0 -18 -49 -62
-69 -62 -6 0 -14 -7 -19 -15 -7 -13 -11 -11 -22 10 -9 17 -19 24 -29 19 -39
-16 -51 -16 -51 0 0 15 -16 21 -65 28 -11 2 -23 7 -27 12 -3 5 -19 10 -35 12
-15 1 -43 6 -62 10 -23 5 -36 3 -42 -7 -6 -10 -9 -10 -9 -2 0 7 -9 12 -20 10
-29 -5 -37 -17 -14 -23 30 -8 47 -40 34 -64 -6 -11 -15 -20 -20 -20 -6 0 -10
-17 -10 -38 0 -30 7 -43 31 -65 17 -15 40 -27 50 -27 18 0 19 -2 4 -29 -8 -16
-20 -31 -27 -33 -6 -2 -8 -10 -4 -16 13 -22 45 6 51 46 8 50 25 88 33 76 8
-12 22 -12 41 0 8 5 16 4 22 -5 6 -9 4 -15 -6 -17 -9 -2 -15 -15 -15 -33 0
-18 -4 -28 -10 -24 -5 3 -10 -1 -10 -9 0 -9 -4 -16 -9 -16 -5 0 -5 -15 -1 -36
5 -19 4 -50 -1 -67 -11 -39 -11 -37 1 -37 6 0 10 8 11 18 0 14 2 14 9 -3 7
-19 77 -95 86 -95 12 0 1 26 -19 44 -32 30 -43 107 -21 141 18 28 38 23 31 -7
-6 -23 1 -48 14 -48 5 0 9 7 9 15 0 8 4 15 9 15 5 0 11 14 13 31 4 25 0 33
-18 41 -18 8 -22 17 -18 34 3 12 -4 49 -15 81 -24 67 -26 82 -9 65 9 -9 14 -7
24 6 10 14 15 15 25 5 7 -7 21 -13 31 -13 10 0 18 -4 18 -10 0 -5 14 -8 30 -6
37 4 37 -3 5 -69 -22 -43 -24 -56 -15 -80 l11 -28 17 24 c26 38 71 79 87 79 7
0 16 6 18 13 4 9 8 9 15 -2 15 -22 32 19 32 78 0 27 5 53 10 56 20 12 10 35
-14 35 -18 0 -26 7 -29 23 -2 12 -5 16 -6 10z"/>
<path d="M217 4470 c-59 -4 -110 -10 -114 -14 -16 -16 13 -18 85 -8 42 7 95
12 117 12 l40 -1 -40 -14 c-22 -8 -51 -15 -65 -15 -18 0 -21 -3 -11 -9 9 -6
-5 -11 -45 -15 -105 -11 -103 -10 -93 -23 11 -12 3 -16 -59 -28 -17 -4 -32
-11 -32 -16 0 -12 17 -11 60 2 19 6 67 16 105 24 54 10 61 13 33 14 -56 1 -53
16 4 19 27 1 73 12 101 22 29 11 62 20 74 20 12 0 28 6 36 14 8 8 36 17 63 19
27 2 4 4 -51 4 -55 0 -149 -3 -208 -7z"/>
<path d="M10267 4307 c-11 -17 -26 -27 -42 -27 -27 0 -32 9 -14 27 9 9 6 11
-13 9 -27 -3 -61 -29 -52 -39 3 -3 1 -14 -6 -24 -10 -15 -11 -16 -6 -1 3 10 1
20 -4 23 -11 7 -13 -9 -4 -42 8 -30 18 -29 33 3 6 15 14 24 18 21 3 -3 -4 -21
-16 -40 -25 -40 -26 -48 -7 -41 7 3 16 -2 19 -10 4 -9 2 -16 -3 -16 -6 0 -9
-3 -9 -7 1 -5 1 -16 0 -25 -2 -26 -21 -22 -21 5 l-1 22 -13 -24 c-10 -18 -15
-20 -19 -10 -4 10 -6 9 -6 -3 -1 -12 6 -18 20 -18 18 0 19 -2 9 -15 -11 -13
-8 -15 15 -15 21 0 26 -4 21 -16 -3 -9 -6 -18 -6 -20 0 -2 -11 -4 -24 -4 -24
0 -36 -17 -36 -48 0 -12 7 -8 24 13 13 17 28 27 32 22 4 -4 -2 -16 -14 -27
-24 -23 -25 -26 -11 -55 8 -18 9 -17 6 6 -4 27 11 48 31 41 6 -2 12 -16 12
-30 0 -21 2 -24 10 -12 8 12 10 10 10 -10 0 -19 2 -22 9 -10 6 8 7 18 4 22 -2
5 1 15 7 23 7 9 8 15 2 15 -18 0 -21 27 -6 56 19 36 10 66 -11 38 -8 -10 -15
-14 -15 -7 0 17 27 32 68 35 6 1 12 5 12 10 0 4 9 17 20 28 26 26 25 40 -1 40
-18 0 -19 2 -9 15 7 9 10 19 6 23 -4 4 -14 -2 -22 -12 -8 -11 -14 -16 -14 -11
0 5 -6 3 -12 -3 -10 -10 -10 -15 2 -23 12 -9 12 -10 -3 -5 -13 4 -20 0 -24
-13 -6 -24 -35 -16 -31 8 4 20 41 51 62 51 10 0 16 8 16 21 0 15 4 19 15 15 8
-3 22 -9 30 -12 8 -3 15 -1 15 6 0 6 -4 8 -10 5 -10 -6 -17 18 -22 70 l-3 29
-18 -27z"/>
<path d="M10833 4117 c-17 -22 -20 -23 -33 -8 -13 14 -15 14 -18 -2 -2 -9 -9
-17 -15 -17 -12 0 -47 -69 -47 -92 0 -6 -7 -19 -16 -29 -9 -10 -11 -19 -6 -23
13 -8 92 63 92 82 0 9 3 12 7 9 3 -4 13 -1 22 6 8 6 5 -1 -7 -17 -23 -30 -31
-106 -12 -106 6 0 10 11 10 24 0 13 7 29 15 36 8 6 14 15 13 18 -2 20 3 32 13
27 5 -4 8 -12 6 -18 -2 -7 0 -20 5 -30 6 -12 3 -23 -12 -39 -11 -13 -23 -32
-26 -43 -6 -28 9 -77 29 -89 19 -12 35 0 20 15 -6 6 -9 18 -6 26 4 11 10 10
29 -8 l24 -22 1 24 c2 61 -4 104 -17 114 -21 15 -21 44 1 88 18 38 17 39 -2
65 -27 36 -47 38 -70 9z"/>
<path d="M12625 3685 c-4 -11 -9 -27 -9 -35 -1 -8 -8 -15 -16 -15 -24 0 -31
-19 -13 -33 13 -9 14 -15 5 -24 -9 -9 -12 -9 -12 3 0 12 -2 12 -10 -1 -6 -9
-21 -14 -39 -12 -16 2 -32 -1 -36 -7 -3 -6 -1 -11 5 -11 6 0 8 -5 5 -10 -4 -6
-11 -7 -17 -4 -7 5 -9 2 -6 -7 7 -19 -37 -63 -56 -56 -10 4 -18 -4 -25 -21 -5
-15 -10 -20 -10 -11 -1 9 -8 16 -16 16 -13 0 -13 -3 -1 -21 8 -13 27 -22 47
-24 19 -2 40 -8 47 -14 19 -16 25 -3 10 21 -7 12 -19 19 -25 16 -26 -9 -12 16
19 35 24 14 35 16 45 8 19 -15 16 -31 -8 -46 -16 -10 -18 -16 -10 -26 9 -10 7
-16 -6 -21 -10 -5 -24 -7 -30 -6 -7 1 -13 -3 -13 -9 0 -5 13 -10 29 -10 30 0
35 7 75 104 15 36 17 38 30 21 12 -17 13 -17 20 6 l6 24 18 -21 c9 -12 29 -24
44 -28 25 -6 26 -5 21 33 -3 23 -1 41 6 45 15 10 14 26 -3 26 -22 0 -38 27
-51 82 -9 42 -13 48 -20 33z"/>
<path d="M12666 3318 c-3 -13 -6 -25 -7 -28 -1 -3 -8 -14 -15 -25 -22 -30 -17
-37 16 -20 34 18 40 18 40 5 0 -5 -8 -10 -17 -11 -14 0 -13 -3 5 -11 12 -6 22
-18 22 -26 0 -12 -3 -12 -14 3 -13 19 -15 17 -21 -18 -4 -21 -5 -41 -2 -44 13
-12 57 -10 68 3 6 8 17 14 25 14 20 0 27 19 12 37 -11 15 -11 16 5 10 14 -5
17 -1 17 21 0 15 -4 23 -8 17 -13 -19 -35 -17 -27 2 13 32 10 47 -7 51 -11 2
-18 -3 -18 -11 0 -22 -31 -30 -49 -12 -14 13 -14 17 -2 24 14 9 9 41 -8 41 -5
0 -11 -10 -15 -22z"/>
<path d="M12597 3204 c-3 -4 -2 -14 3 -23 12 -23 -26 -26 -58 -5 -21 14 -23
13 -34 -12 -9 -19 -18 -24 -34 -21 -19 3 -22 0 -19 -24 2 -16 0 -31 -6 -34
-18 -12 1 -22 33 -19 29 3 31 2 16 -9 -16 -13 -16 -14 1 -29 18 -15 20 -14 40
11 12 14 20 34 17 43 -2 11 3 20 15 23 14 5 18 12 14 26 -6 17 -3 19 21 13 25
-6 27 -5 21 17 -4 13 -7 30 -7 37 0 13 -13 16 -23 6z"/>
<path d="M12212 3094 c-6 -11 -11 -13 -16 -5 -11 17 -26 13 -26 -8 0 -11 -4
-21 -8 -23 -5 -1 -12 -16 -16 -31 -4 -19 -3 -26 4 -22 5 3 10 -1 10 -10 0 -8
-11 -20 -25 -25 -22 -8 -25 -15 -25 -59 0 -44 2 -49 20 -44 12 3 27 17 35 32
8 14 14 23 15 19 0 -4 15 -1 34 7 30 13 36 13 46 -1 24 -27 22 -5 -1 28 -13
18 -22 42 -21 55 2 12 -2 31 -8 42 -7 14 -7 21 0 21 13 0 13 27 1 35 -6 3 -14
-2 -19 -11z"/>
<path d="M12575 2929 c-5 -14 -2 -25 6 -30 11 -7 10 -11 -6 -23 -23 -18 -32
-19 -39 -7 -4 5 0 12 6 15 7 3 2 3 -12 0 -31 -8 -31 -7 -33 -33 -1 -11 -5 -21
-9 -21 -4 0 -8 -6 -8 -14 0 -7 13 -16 29 -19 17 -4 35 -16 42 -29 7 -13 18
-27 25 -31 8 -4 14 -18 15 -30 0 -12 3 -16 6 -9 3 8 9 10 16 4 7 -5 24 -12 39
-16 22 -5 26 -3 22 9 -4 8 -12 15 -19 15 -16 0 -28 86 -15 110 7 13 3 31 -15
68 -29 60 -41 70 -50 41z"/>
<path d="M12197 2444 c-3 -4 -2 -15 4 -25 7 -13 6 -26 -2 -40 l-11 -21 -22 21
c-30 28 -48 28 -37 -1 4 -13 19 -25 31 -28 30 -7 38 -30 11 -30 -25 0 -27 -9
-4 -25 15 -11 15 -15 4 -29 -7 -9 -22 -16 -32 -16 -11 0 -19 -6 -19 -13 0 -8
-9 -22 -20 -32 -11 -10 -20 -24 -20 -32 0 -11 -4 -11 -20 -1 -22 14 -34 6 -45
-30 -5 -16 -2 -24 12 -29 10 -3 22 -12 26 -20 12 -19 24 -16 30 7 3 11 11 20
19 20 8 0 24 14 36 30 13 17 29 30 37 30 7 0 28 14 45 31 34 35 54 33 21 -2
-11 -12 -18 -26 -15 -31 4 -5 14 -1 25 10 10 11 31 23 48 27 36 8 59 53 56
110 -3 50 3 65 20 59 14 -6 60 14 52 23 -3 2 -21 0 -40 -5 -39 -11 -57 -1 -57
30 0 15 -8 18 -44 18 -25 0 -48 -5 -51 -10 -5 -8 -11 -8 -19 -1 -7 6 -16 8
-19 5z"/>
<path d="M10299 1683 c-12 -22 -11 -26 4 -34 13 -8 15 -14 7 -29 -5 -10 -7
-27 -4 -37 5 -17 5 -17 -6 0 -11 17 -13 17 -29 3 -11 -10 -21 -12 -31 -6 -11
7 -19 -1 -35 -33 -33 -68 -144 -113 -153 -62 -2 11 -11 26 -20 33 -14 11 -14
15 5 40 26 34 58 43 50 13 -5 -20 -4 -20 19 -3 13 9 24 21 24 25 0 11 -44 26
-50 17 -3 -4 -15 -10 -27 -14 -12 -4 -25 -16 -28 -26 -3 -11 -17 -28 -31 -39
-32 -25 -22 -51 19 -51 l30 0 -23 -25 c-13 -14 -29 -25 -37 -25 -20 0 -16 -14
12 -40 18 -17 22 -27 15 -40 -10 -18 -10 -60 0 -60 3 0 13 9 23 20 9 11 24 20
32 20 8 0 15 9 15 20 0 12 7 20 16 20 9 0 14 6 11 13 -2 6 -13 11 -23 10 -14
-1 -9 7 19 31 20 18 37 39 37 46 0 9 14 11 50 8 37 -4 48 -2 40 7 -16 19 2 60
29 63 16 1 22 -2 18 -12 -11 -28 7 -25 25 5 15 24 23 29 41 23 18 -5 20 -4 10
7 -19 19 -17 89 2 89 30 0 12 29 -26 43 -11 3 -21 -3 -30 -20z"/>
<path d="M12418 1337 c-21 -12 -38 -27 -38 -33 0 -15 -54 -11 -73 4 -11 9 -16
7 -25 -12 -10 -22 -8 -24 21 -30 17 -3 35 -2 41 4 18 18 46 11 56 -16 13 -34
13 -52 -2 -50 -7 0 -14 -3 -15 -7 -4 -17 -48 -45 -63 -40 -13 4 -13 4 0 -6 13
-10 13 -12 0 -20 -8 -6 -11 -13 -7 -17 4 -4 15 0 25 9 10 9 33 20 50 23 18 4
32 13 32 20 0 8 7 14 15 14 8 0 15 5 15 11 0 5 4 8 9 5 5 -3 16 5 24 17 23 36
44 30 51 -16 8 -45 3 -55 -18 -38 -10 8 -16 9 -21 1 -3 -6 -11 -8 -16 -5 -5 4
-9 1 -9 -4 0 -6 -7 -11 -15 -11 -8 0 -15 -7 -15 -15 0 -21 41 -44 70 -40 83
13 106 19 118 34 7 9 29 20 49 26 20 6 38 16 39 23 1 7 0 8 -3 2 -2 -5 -12
-10 -21 -9 -11 0 -12 2 -4 6 18 7 15 43 -4 43 -8 0 -13 -4 -10 -8 2 -4 -11 -6
-30 -4 -19 2 -34 8 -34 12 0 14 -40 22 -54 11 -15 -12 -18 6 -9 52 3 21 10 27
30 27 21 0 24 2 13 15 -7 8 -21 15 -31 15 -10 0 -20 4 -24 9 -3 6 -13 10 -23
10 -9 -1 -26 2 -37 5 -12 3 -36 -4 -57 -17z"/>
<path d="M9070 878 c0 -18 -10 -49 -22 -68 -12 -19 -21 -48 -19 -63 1 -24 -2
-28 -21 -26 -37 3 -78 -12 -79 -30 -5 -45 -3 -57 8 -68 17 -19 21 -17 53 35
16 27 41 54 55 62 14 7 25 17 25 21 0 18 50 59 79 65 27 6 31 4 31 -14 0 -12
-5 -24 -11 -28 -8 -4 -7 -9 2 -14 7 -5 25 1 43 13 17 12 32 23 34 23 2 1 -3
24 -11 50 -11 40 -19 50 -39 52 -20 2 -28 -3 -39 -30 -12 -32 -26 -48 -41 -48
-13 0 -19 39 -9 58 7 13 7 22 -1 30 -22 22 -38 13 -38 -20z"/>
<path d="M8566 843 c4 -10 7 -31 6 -46 -1 -15 3 -25 8 -22 6 4 6 -5 0 -21 -6
-15 -9 -33 -6 -40 3 -8 0 -11 -8 -8 -18 7 -26 -28 -19 -87 l6 -49 36 6 c45 8
51 12 51 30 0 8 6 14 14 14 8 0 16 6 19 14 3 7 20 16 37 20 30 5 32 8 25 33
-5 16 -9 56 -9 91 -1 61 -1 62 -29 62 -16 0 -37 4 -47 10 -15 8 -17 6 -13 -9
7 -26 -13 -35 -29 -13 -7 10 -21 21 -32 25 -15 6 -17 4 -10 -10z"/>
<path d="M12498 547 c6 -7 13 -31 14 -52 3 -32 7 -39 28 -42 13 -2 32 -11 42
-20 22 -20 24 -48 3 -39 -8 3 -15 1 -15 -4 0 -6 -9 -10 -20 -10 -15 0 -20 -7
-20 -25 0 -20 -5 -25 -25 -25 -20 0 -25 5 -25 25 0 14 -5 25 -10 25 -13 0 -4
-40 21 -95 24 -51 25 -72 4 -55 -8 7 -15 19 -15 26 0 8 -4 14 -10 14 -11 0 -9
-68 3 -87 9 -15 -9 -63 -25 -64 -7 -1 -21 -1 -30 0 -12 2 -16 -3 -12 -13 7
-19 -7 -21 -24 -4 -9 9 -13 7 -18 -5 -9 -25 4 -39 26 -27 12 6 21 7 25 0 3 -5
19 -7 34 -4 26 6 28 4 24 -20 -6 -28 -23 -36 -23 -11 0 8 -4 15 -10 15 -5 0
-10 -4 -10 -10 0 -13 49 -44 57 -36 3 3 0 6 -8 7 -24 1 24 18 54 18 15 1 27 5
27 10 0 16 30 21 57 8 21 -9 27 -9 31 1 2 6 12 12 22 12 10 0 26 7 34 16 9 8
21 12 27 9 6 -4 17 3 26 14 12 17 18 20 29 10 12 -10 14 2 14 79 0 63 -4 92
-12 95 -10 4 -10 8 0 15 20 13 11 57 -11 57 -10 0 -22 7 -27 15 -8 12 -10 12
-10 1 0 -8 -6 -11 -16 -7 -10 4 -22 0 -29 -10 -17 -24 -54 1 -52 34 2 18 -7
29 -31 42 -19 10 -29 21 -23 25 12 7 4 52 -12 73 -5 6 -22 12 -38 12 -16 0
-29 5 -29 10 0 6 -5 10 -11 10 -8 0 -8 -4 -1 -13z m172 -217 c3 -5 18 -13 33
-19 15 -6 27 -17 27 -25 0 -10 -6 -13 -15 -10 -11 5 -15 -1 -15 -23 0 -28 -15
-53 -32 -53 -4 0 -8 7 -8 15 0 37 -33 -4 -52 -65 -3 -8 -13 11 -22 43 -9 32
-14 66 -11 76 4 15 -2 20 -34 25 -22 3 -43 11 -47 18 -5 8 2 9 23 5 20 -4 42
0 64 13 33 17 78 18 89 0z"/>
<path d="M8830 518 c-25 -11 -25 -11 -2 -15 13 -3 22 -12 22 -23 0 -10 7 -20
17 -22 14 -3 14 -5 2 -15 -11 -8 -24 -8 -57 4 -58 19 -86 14 -90 -16 -2 -13
-12 -26 -24 -29 -16 -4 -18 -10 -13 -31 3 -14 9 -38 12 -53 3 -16 11 -28 19
-28 13 0 34 -29 34 -48 0 -14 -36 -52 -44 -45 -3 3 -6 -6 -6 -21 0 -18 -4 -25
-12 -20 -7 4 -8 3 -4 -5 6 -9 11 -9 22 0 11 9 18 8 29 -1 13 -11 21 -10 43 7
20 15 34 18 56 12 15 -4 26 -5 22 -2 -3 3 2 12 11 18 15 11 15 17 5 40 -11 23
-10 32 7 58 17 27 18 33 4 65 -14 33 -13 35 1 23 23 -19 35 -10 24 19 -7 20
-11 22 -18 10 -8 -12 -10 -9 -10 12 0 14 6 28 12 30 10 4 10 11 -1 34 -8 16
-13 35 -12 42 2 15 -15 15 -49 0z"/>
<path d="M10130 411 c0 -5 -9 -11 -20 -14 -28 -7 -25 -27 5 -27 30 0 33 -20 5
-27 -11 -3 -20 -10 -20 -15 0 -5 -9 -7 -19 -3 -17 5 -18 1 -14 -32 4 -36 4
-37 -11 -18 -15 20 -15 20 -16 -2 0 -25 -16 -39 -23 -21 -5 12 -6 8 -11 -34
-2 -18 -26 -22 -26 -4 0 10 -6 13 -15 10 -25 -10 -18 -64 11 -90 l25 -24 -20
-28 c-10 -15 -29 -37 -40 -49 -12 -12 -21 -25 -21 -28 0 -3 68 -5 150 -5 l150
0 0 38 c0 20 -4 32 -8 26 -4 -6 -16 -14 -27 -18 -19 -5 -21 -3 -17 30 4 34 3
37 -18 31 -26 -7 -52 1 -44 14 3 5 14 9 25 9 16 0 17 3 8 13 -11 11 -16 10
-31 -5 -20 -20 -54 -24 -60 -6 -3 9 -6 9 -12 0 -4 -7 -2 -12 3 -12 6 0 11 -5
11 -10 0 -6 -9 -5 -22 2 -30 17 -38 28 -38 56 0 25 21 29 39 8 18 -21 51 -7
67 28 8 18 13 24 14 14 0 -19 20 -26 20 -7 0 5 4 8 8 5 5 -3 19 2 31 11 17 11
21 21 17 39 -5 18 -3 22 9 18 10 -4 15 0 15 15 0 12 -7 24 -15 27 -8 4 -12 10
-9 15 3 5 12 2 20 -6 30 -29 32 -14 3 17 -16 18 -27 38 -25 44 3 7 -5 15 -17
18 -30 8 -37 7 -37 -3z"/>
<path d="M12164 301 c4 -6 -1 -22 -10 -36 -13 -20 -23 -25 -41 -20 -17 4 -23
1 -23 -10 0 -9 -5 -13 -10 -10 -13 8 -26 -25 -14 -34 5 -3 15 -13 22 -22 11
-15 8 -16 -33 -7 -42 9 -78 2 -47 -9 6 -3 9 -9 6 -15 -3 -5 -15 -2 -27 9 -11
10 -17 13 -14 6 4 -7 -1 -14 -12 -18 -11 -3 -26 -17 -35 -30 -10 -15 -22 -22
-31 -19 -8 4 -15 2 -15 -4 0 -13 54 -23 58 -11 2 5 30 9 62 9 32 0 62 5 65 10
5 8 11 8 20 0 14 -12 25 6 25 41 0 10 4 19 10 19 5 0 9 12 8 27 -2 14 3 28 10
31 7 2 19 10 26 18 8 8 19 14 25 14 20 0 12 49 -10 61 -14 7 -19 7 -15 0z"/>
<path d="M8485 278 c-24 -84 -38 -108 -63 -108 -20 0 -23 4 -19 22 4 14 0 29
-10 40 -21 23 -43 23 -43 1 0 -15 -2 -16 -10 -3 -8 12 -10 10 -10 -9 0 -16 4
-22 15 -17 9 3 15 0 15 -9 0 -8 6 -15 14 -15 23 0 48 -58 35 -82 -9 -16 -13
-18 -20 -7 -4 8 -4 16 2 20 5 3 7 13 3 22 -3 9 -11 14 -16 11 -6 -4 -15 0 -20
7 -6 10 -8 -3 -5 -38 3 -40 1 -53 -9 -53 -8 0 -14 6 -14 13 -1 6 -7 -3 -15
-22 -8 -18 -12 -37 -9 -42 8 -14 30 -11 44 6 16 19 30 19 30 0 0 -13 25 -15
164 -15 l163 0 7 42 c7 42 -3 66 -23 54 -6 -4 -11 -15 -11 -24 0 -9 -12 -25
-25 -35 -27 -19 -35 -8 -10 13 16 13 21 65 5 55 -5 -3 -7 -11 -4 -19 3 -7 -1
-13 -9 -13 -8 0 -28 26 -45 58 -25 49 -31 55 -35 37 -4 -14 -11 -19 -21 -15
-11 5 -16 0 -16 -14 0 -11 -4 -17 -10 -14 -5 3 -10 0 -10 -8 0 -17 -41 -30
-64 -21 -13 5 -10 12 14 36 17 16 28 33 25 38 -3 4 2 25 9 46 8 22 15 35 16
29 2 -12 18 25 19 43 2 21 -27 13 -34 -10z"/>
</g>
</svg>
